<svg width="120" height="120" viewBox="0 0 120 120" fill="none" xmlns="http://www.w3.org/2000/svg">
<rect width="120" height="120" rx="4" fill="#EACAE8"/>
<path d="M50.25 60C50.25 61.3125 49.2188 62.25 48 62.25C46.6875 62.25 45.75 61.3125 45.75 60C45.75 58.7812 46.6875 57.75 48 57.75C49.2188 57.75 50.25 58.7812 50.25 60ZM48.75 51C48.75 49.7812 49.6875 48.75 51 48.75C52.2188 48.75 53.25 49.7812 53.25 51C53.25 52.3125 52.2188 53.25 51 53.25C49.6875 53.25 48.75 52.3125 48.75 51ZM62.25 48C62.25 49.3125 61.2188 50.25 60 50.25C58.6875 50.25 57.75 49.3125 57.75 48C57.75 46.7812 58.6875 45.75 60 45.75C61.2188 45.75 62.25 46.7812 62.25 48ZM66.75 51C66.75 49.7812 67.6875 48.75 69 48.75C70.2188 48.75 71.25 49.7812 71.25 51C71.25 52.3125 70.2188 53.25 69 53.25C67.6875 53.25 66.75 52.3125 66.75 51ZM77.3438 66H68.25C65.7188 66 63.75 68.0625 63.75 70.5C63.75 70.875 63.75 71.1562 63.8438 71.4375C64.0312 72.4688 64.4062 73.3125 64.7812 74.25C65.3438 75.5625 66 76.875 66 78.1875C66 81.1875 63.9375 83.9062 60.9375 84C60.6562 84 60.2812 84 60 84C46.6875 84 36 73.3125 36 60C36 46.7812 46.6875 36 60 36C73.2188 36 84 46.7812 84 60C84 60.0938 83.9062 60.1875 83.9062 60.2812C83.9062 63.75 80.8125 66 77.3438 66ZM80.9062 60.2812C80.9062 60.1875 81 60.0938 81 60C81 48.4688 71.5312 39 60 39C48.375 39 39 48.4688 39 60C39 71.625 48.375 81 60 81C60.2812 81 60.5625 81 60.8438 81C61.7812 81 63 80.0625 63 78.1875C63 77.7188 62.8125 77.0625 62.3438 76.0312C62.25 75.8438 62.1562 75.75 62.0625 75.5625C61.6875 74.625 61.125 73.4062 60.8438 72.0938C60.75 71.625 60.75 71.0625 60.75 70.5C60.75 66.375 64.0312 63 68.25 63H77.3438C79.6875 63 80.9062 61.5938 80.9062 60.2812Z" fill="black" fill-opacity="0.38"/>
</svg>
