<svg width="128" height="72" viewBox="0 0 128 72" fill="none" xmlns="http://www.w3.org/2000/svg">
<rect width="128" height="72" rx="4" fill="#EACAE8"/>
<path d="M54.25 36C54.25 37.3125 53.2188 38.25 52 38.25C50.6875 38.25 49.75 37.3125 49.75 36C49.75 34.7812 50.6875 33.75 52 33.75C53.2188 33.75 54.25 34.7812 54.25 36ZM52.75 27C52.75 25.7812 53.6875 24.75 55 24.75C56.2188 24.75 57.25 25.7812 57.25 27C57.25 28.3125 56.2188 29.25 55 29.25C53.6875 29.25 52.75 28.3125 52.75 27ZM66.25 24C66.25 25.3125 65.2188 26.25 64 26.25C62.6875 26.25 61.75 25.3125 61.75 24C61.75 22.7812 62.6875 21.75 64 21.75C65.2188 21.75 66.25 22.7812 66.25 24ZM70.75 27C70.75 25.7812 71.6875 24.75 73 24.75C74.2188 24.75 75.25 25.7812 75.25 27C75.25 28.3125 74.2188 29.25 73 29.25C71.6875 29.25 70.75 28.3125 70.75 27ZM81.3438 42H72.25C69.7188 42 67.75 44.0625 67.75 46.5C67.75 46.875 67.75 47.1562 67.8438 47.4375C68.0312 48.4688 68.4062 49.3125 68.7812 50.25C69.3438 51.5625 70 52.875 70 54.1875C70 57.1875 67.9375 59.9062 64.9375 60C64.6562 60 64.2812 60 64 60C50.6875 60 40 49.3125 40 36C40 22.7812 50.6875 12 64 12C77.2188 12 88 22.7812 88 36C88 36.0938 87.9062 36.1875 87.9062 36.2812C87.9062 39.75 84.8125 42 81.3438 42ZM84.9062 36.2812C84.9062 36.1875 85 36.0938 85 36C85 24.4688 75.5312 15 64 15C52.375 15 43 24.4688 43 36C43 47.625 52.375 57 64 57C64.2812 57 64.5625 57 64.8438 57C65.7812 57 67 56.0625 67 54.1875C67 53.7188 66.8125 53.0625 66.3438 52.0312C66.25 51.8438 66.1562 51.75 66.0625 51.5625C65.6875 50.625 65.125 49.4062 64.8438 48.0938C64.75 47.625 64.75 47.0625 64.75 46.5C64.75 42.375 68.0312 39 72.25 39H81.3438C83.6875 39 84.9062 37.5938 84.9062 36.2812Z" fill="black" fill-opacity="0.38"/>
</svg>
