<svg width="216" height="146" viewBox="0 0 216 146" fill="none" xmlns="http://www.w3.org/2000/svg">
<path d="M111.337 0.136217L56.9298 12.3767C55.4721 12.7064 54.2047 13.6009 53.4057 14.8638C52.6066 16.1268 52.3411 17.6552 52.6675 19.1137L67.5864 85.4263L131.511 71.0445C132.037 70.928 132.517 70.6628 132.896 70.2805L118.074 4.39858C117.744 2.94088 116.85 1.67347 115.587 0.874401C114.324 0.0753353 112.795 -0.190133 111.337 0.136217Z" fill="#E6E6E6"/>
<path d="M91.5768 9.26729L61.7604 15.9754C60.433 16.2754 59.2788 17.0896 58.5509 18.2395C57.823 19.3893 57.5808 20.7809 57.8776 22.1091L71.9043 84.4556L128.679 71.6825L118.464 26.2782C117.148 20.4606 113.578 15.4024 108.538 12.2133C103.497 9.02429 97.3975 7.9648 91.5768 9.26729Z" fill="white"/>
<path d="M117.76 68.3213L80.3299 76.7422C80.1694 76.778 80.0176 76.8451 79.8831 76.9396C79.7485 77.0341 79.634 77.1543 79.5459 77.2931C79.4579 77.432 79.3981 77.5868 79.37 77.7488C79.3419 77.9108 79.346 78.0768 79.3821 78.2372C79.4181 78.3976 79.4855 78.5493 79.5803 78.6836C79.6751 78.818 79.7954 78.9323 79.9345 79.0201C80.0735 79.1078 80.2284 79.1673 80.3905 79.1951C80.5525 79.2229 80.7185 79.2185 80.8788 79.1821L118.309 70.7612C118.469 70.7255 118.621 70.6585 118.756 70.564C118.891 70.4695 119.005 70.3494 119.093 70.2105C119.181 70.0716 119.241 69.9167 119.27 69.7546C119.298 69.5925 119.294 69.4265 119.257 69.266C119.221 69.1055 119.154 68.9537 119.059 68.8194C118.964 68.685 118.844 68.5706 118.705 68.4829C118.566 68.3951 118.41 68.3356 118.248 68.3079C118.086 68.2802 117.92 68.2847 117.76 68.3213Z" fill="#E4E4E4"/>
<path d="M116.672 63.4964L79.2426 71.9173C78.9187 71.9901 78.637 72.1887 78.4596 72.4692C78.2821 72.7498 78.2233 73.0893 78.2962 73.4132C78.369 73.7371 78.5676 74.0188 78.8481 74.1963C79.1287 74.3737 79.4682 74.4325 79.7921 74.3597L117.222 65.9387C117.382 65.9026 117.534 65.8353 117.668 65.7406C117.803 65.6459 117.917 65.5257 118.005 65.3868C118.093 65.2479 118.153 65.093 118.181 64.931C118.209 64.7691 118.204 64.6032 118.168 64.4428C118.132 64.2824 118.065 64.1307 117.97 63.9964C117.876 63.862 117.755 63.7476 117.616 63.6597C117.477 63.5719 117.323 63.5122 117.161 63.4842C116.999 63.4561 116.833 63.4603 116.672 63.4964Z" fill="#E4E4E4"/>
<path d="M94.3848 63.4443L78.1596 67.0947C77.836 67.1675 77.5546 67.3658 77.3773 67.6461C77.2 67.9263 77.1413 68.2655 77.2141 68.5891C77.2869 68.9126 77.4852 69.194 77.7655 69.3713C78.0457 69.5486 78.3849 69.6074 78.7085 69.5346L94.9337 65.8842C95.0943 65.8485 95.2463 65.7816 95.3809 65.6871C95.5156 65.5926 95.6302 65.4724 95.7184 65.3335C95.8065 65.1946 95.8664 65.0397 95.8946 64.8776C95.9227 64.7156 95.9186 64.5495 95.8825 64.3891C95.8464 64.2286 95.779 64.0768 95.6842 63.9424C95.5893 63.808 95.4688 63.6937 95.3297 63.6059C95.1906 63.5181 95.0355 63.4587 94.8733 63.431C94.7112 63.4033 94.5452 63.4078 94.3848 63.4443Z" fill="#E4E4E4"/>
<path d="M113.317 48.5706L75.8871 56.9915C75.7268 57.0276 75.5751 57.0949 75.4407 57.1896C75.3064 57.2843 75.192 57.4045 75.1041 57.5435C74.9266 57.824 74.8678 58.1636 74.9407 58.4875C75.0136 58.8113 75.2121 59.093 75.4926 59.2705C75.7732 59.448 76.1127 59.5068 76.4366 59.4339L113.866 51.0129C114.027 50.9769 114.179 50.9095 114.313 50.8148C114.447 50.7201 114.562 50.5999 114.65 50.461C114.737 50.3221 114.797 50.1672 114.825 50.0052C114.853 49.8433 114.849 49.6774 114.813 49.517C114.777 49.3566 114.709 49.2049 114.615 49.0706C114.52 48.9362 114.4 48.8219 114.261 48.734C114.122 48.6461 113.967 48.5864 113.805 48.5584C113.643 48.5303 113.477 48.5345 113.317 48.5706Z" fill="#E4E4E4"/>
<path d="M112.228 43.7485L74.7986 52.1695C74.6382 52.2052 74.4863 52.2723 74.3518 52.3669C74.2173 52.4614 74.1027 52.5815 74.0147 52.7204C73.9267 52.8592 73.8669 53.0141 73.8387 53.1761C73.8106 53.3381 73.8147 53.504 73.8508 53.6644C73.8869 53.8248 73.9543 53.9765 74.049 54.1108C74.1438 54.2452 74.2642 54.3595 74.4032 54.4473C74.5422 54.5351 74.6972 54.5946 74.8593 54.6224C75.0213 54.6502 75.1872 54.6457 75.3476 54.6093L112.777 46.1884C112.938 46.1525 113.089 46.0853 113.224 45.9908C113.358 45.8962 113.473 45.7761 113.56 45.6373C113.648 45.4985 113.708 45.3437 113.736 45.1818C113.764 45.0199 113.76 44.854 113.724 44.6937C113.688 44.5334 113.621 44.3818 113.526 44.2475C113.431 44.1133 113.311 43.999 113.172 43.9112C113.033 43.8234 112.878 43.7639 112.717 43.7359C112.555 43.708 112.389 43.7123 112.228 43.7485Z" fill="#E4E4E4"/>
<path d="M89.9405 43.6936L73.7152 47.344C73.5549 47.38 73.4032 47.4474 73.2688 47.5421C73.1345 47.6368 73.0201 47.757 72.9322 47.8959C72.8443 48.0348 72.7847 48.1897 72.7566 48.3517C72.7286 48.5136 72.7327 48.6795 72.7688 48.8399C72.8049 49.0003 72.8722 49.152 72.9669 49.2863C73.0616 49.4207 73.1818 49.535 73.3208 49.6229C73.4597 49.7108 73.6145 49.7705 73.7765 49.7985C73.9385 49.8266 74.1044 49.8224 74.2648 49.7863L90.49 46.136C90.6503 46.0999 90.802 46.0326 90.9364 45.9379C91.0708 45.8432 91.1851 45.7229 91.273 45.584C91.3609 45.4451 91.4206 45.2903 91.4486 45.1283C91.4766 44.9663 91.4725 44.8004 91.4364 44.6401C91.4003 44.4797 91.333 44.328 91.2383 44.1936C91.1436 44.0593 91.0234 43.9449 90.8845 43.857C90.7455 43.7691 90.5907 43.7095 90.4287 43.6814C90.2667 43.6534 90.1008 43.6575 89.9405 43.6936Z" fill="#E4E4E4"/>
<path d="M108.872 28.8206L71.4418 37.2415C71.1179 37.3144 70.8363 37.5129 70.6588 37.7935C70.4813 38.074 70.4225 38.4136 70.4954 38.7374C70.5682 39.0613 70.7668 39.343 71.0473 39.5205C71.3279 39.698 71.6674 39.7567 71.9913 39.6839L109.421 31.2629C109.582 31.2269 109.733 31.1595 109.868 31.0648C110.002 30.9701 110.116 30.8499 110.204 30.711C110.292 30.5721 110.352 30.4172 110.38 30.2552C110.408 30.0933 110.404 29.9274 110.368 29.767C110.332 29.6066 110.264 29.4549 110.169 29.3206C110.075 29.1862 109.955 29.0718 109.816 28.984C109.677 28.8961 109.522 28.8364 109.36 28.8084C109.198 28.7803 109.032 28.7845 108.872 28.8206Z" fill="#E6E6E6"/>
<path d="M107.786 23.9973L70.3559 32.4183C70.1955 32.4544 70.0438 32.5217 69.9095 32.6164C69.7751 32.7111 69.6607 32.8313 69.5728 32.9702C69.3953 33.2508 69.3366 33.5903 69.4094 33.9142C69.4823 34.2381 69.6808 34.5198 69.9614 34.6972C70.2419 34.8747 70.5815 34.9335 70.9054 34.8606L108.335 26.4397C108.496 26.4036 108.647 26.3363 108.782 26.2416C108.916 26.1469 109.03 26.0267 109.118 25.8877C109.206 25.7488 109.266 25.594 109.294 25.432C109.322 25.27 109.318 25.1041 109.282 24.9438C109.246 24.7834 109.178 24.6317 109.084 24.4974C108.989 24.363 108.869 24.2486 108.73 24.1607C108.591 24.0728 108.436 24.0132 108.274 23.9851C108.112 23.9571 107.946 23.9612 107.786 23.9973Z" fill="#E6E6E6"/>
<path d="M85.4952 23.9436L69.2699 27.5939C68.9461 27.6668 68.6644 27.8654 68.4869 28.1459C68.3094 28.4264 68.2506 28.766 68.3235 29.0899C68.3964 29.4138 68.5949 29.6954 68.8755 29.8729C69.156 30.0504 69.4956 30.1092 69.8194 30.0363L86.0447 26.386C86.205 26.3499 86.3567 26.2826 86.4911 26.1879C86.6254 26.0932 86.7398 25.9729 86.8277 25.834C86.9156 25.6951 86.9753 25.5402 87.0033 25.3783C87.0313 25.2163 87.0272 25.0504 86.9911 24.89C86.955 24.7297 86.8877 24.578 86.793 24.4436C86.6983 24.3093 86.5781 24.1949 86.4392 24.107C86.3002 24.0191 86.1454 23.9595 85.9834 23.9314C85.8215 23.9034 85.6555 23.9075 85.4952 23.9436Z" fill="#E6E6E6"/>
<path d="M2.79475 77.0762C2.44009 77.0766 2.10007 77.2176 1.84928 77.4684C1.59849 77.7192 1.45743 78.0592 1.45703 78.4139V216.737C1.45742 217.092 1.59848 217.432 1.84927 217.682C2.10005 217.933 2.44007 218.074 2.79475 218.075H176.224C176.579 218.074 176.919 217.933 177.17 217.682C177.42 217.432 177.561 217.092 177.562 216.737V100.618C177.561 100.263 177.42 99.9229 177.17 99.6721C176.919 99.4213 176.579 99.2802 176.224 99.2797H76.6871C75.6766 99.2806 74.7023 98.9041 73.9549 98.2241L51.5775 77.8917C51.0002 77.3664 50.2476 77.0755 49.4671 77.0762H2.79475Z" fill="#85B5F6"/>
<path d="M209.768 40.8973L116.906 0.974473C114.416 -0.0925685 111.604 -0.12841 109.088 0.874801C106.572 1.87801 104.556 3.83835 103.483 6.32579L54.8242 119.508L163.932 166.415C164.826 166.803 165.814 166.925 166.776 166.767L215.119 54.3198C216.186 51.8299 216.222 49.0184 215.219 46.5021C214.215 43.9858 212.255 41.9701 209.768 40.8973Z" fill="#E6E6E6"/>
<path d="M171.051 33.2702L120.16 11.3915C117.893 10.4195 115.333 10.3863 113.041 11.2992C110.75 12.2121 108.914 13.9966 107.936 16.2613L62.1875 122.675L159.091 164.335L192.407 86.8387C196.666 76.9016 196.809 65.681 192.805 55.6385C188.802 45.596 180.978 37.5517 171.051 33.2702Z" fill="white"/>
<path d="M146.644 147.787L82.7588 120.321C82.4852 120.203 82.1911 120.14 81.8932 120.136C81.5953 120.132 81.2994 120.186 81.0226 120.296C80.7457 120.406 80.4933 120.57 80.2797 120.778C80.0662 120.985 79.8957 121.233 79.778 121.507C79.6603 121.781 79.5978 122.075 79.5939 122.373C79.5901 122.671 79.645 122.967 79.7556 123.243C79.8661 123.52 80.0302 123.772 80.2383 123.985C80.4464 124.199 80.6945 124.369 80.9684 124.486L144.854 151.951C145.127 152.069 145.421 152.132 145.719 152.137C146.017 152.141 146.313 152.087 146.59 151.976C146.867 151.866 147.119 151.703 147.333 151.495C147.546 151.287 147.717 151.039 147.835 150.766C147.952 150.492 148.015 150.198 148.019 149.9C148.022 149.602 147.968 149.306 147.857 149.029C147.746 148.753 147.582 148.501 147.374 148.287C147.166 148.074 146.918 147.904 146.644 147.787Z" fill="#E4E4E4"/>
<path d="M150.186 139.552L86.3008 112.086C85.748 111.849 85.1236 111.841 84.5649 112.064C84.0061 112.287 83.5588 112.722 83.3212 113.275C83.0836 113.828 83.0752 114.452 83.2979 115.011C83.5205 115.57 83.956 116.017 84.5086 116.255L148.394 143.72C148.668 143.838 148.962 143.901 149.26 143.905C149.558 143.909 149.853 143.854 150.13 143.744C150.407 143.633 150.659 143.469 150.873 143.262C151.086 143.054 151.257 142.806 151.374 142.532C151.492 142.258 151.555 141.964 151.559 141.666C151.563 141.368 151.508 141.073 151.397 140.796C151.287 140.519 151.123 140.267 150.916 140.053C150.708 139.84 150.46 139.669 150.186 139.552Z" fill="#E4E4E4"/>
<path d="M117.533 115.761L89.8392 103.855C89.5657 103.737 89.2717 103.674 88.9739 103.67C88.6762 103.666 88.3805 103.721 88.1038 103.831C87.8271 103.941 87.5749 104.104 87.3615 104.312C87.1481 104.52 86.9777 104.768 86.86 105.041C86.7424 105.315 86.6799 105.609 86.676 105.907C86.6721 106.204 86.7269 106.5 86.8373 106.777C86.9477 107.053 87.1115 107.305 87.3194 107.519C87.5273 107.732 87.7752 107.902 88.0489 108.019L115.742 119.925C116.016 120.043 116.31 120.106 116.607 120.11C116.905 120.114 117.201 120.06 117.478 119.949C117.754 119.839 118.007 119.676 118.22 119.468C118.433 119.26 118.604 119.012 118.721 118.739C118.839 118.465 118.902 118.171 118.905 117.873C118.909 117.576 118.854 117.28 118.744 117.003C118.634 116.727 118.47 116.475 118.262 116.262C118.054 116.048 117.806 115.878 117.533 115.761Z" fill="#E4E4E4"/>
<path d="M161.138 114.077L97.2524 86.6112C96.6997 86.3743 96.0757 86.3665 95.5173 86.5895C94.9588 86.8125 94.5118 87.248 94.2743 87.8004C94.0368 88.3528 94.0283 88.9769 94.2507 89.5356C94.4731 90.0942 94.9081 90.5418 95.4602 90.7799L159.346 118.245C159.619 118.363 159.914 118.426 160.212 118.431C160.51 118.435 160.806 118.38 161.083 118.27C161.36 118.16 161.613 117.996 161.827 117.788C162.041 117.58 162.211 117.332 162.329 117.058C162.447 116.784 162.509 116.49 162.513 116.192C162.517 115.893 162.462 115.597 162.352 115.32C162.241 115.044 162.077 114.791 161.868 114.578C161.66 114.364 161.412 114.194 161.138 114.077Z" fill="#E4E4E4"/>
<path d="M164.675 105.845L100.79 78.3801C100.516 78.2619 100.222 78.1989 99.9244 78.1946C99.6265 78.1902 99.3307 78.2447 99.0538 78.3548C98.777 78.4649 98.5245 78.6285 98.311 78.8363C98.0974 79.0441 97.927 79.2919 97.8093 79.5656C97.6916 79.8394 97.629 80.1336 97.6252 80.4315C97.6213 80.7294 97.6763 81.0252 97.7868 81.3019C97.8974 81.5786 98.0614 81.8307 98.2695 82.0439C98.4776 82.2571 98.7258 82.4272 98.9997 82.5445L162.885 110.01C163.159 110.128 163.453 110.191 163.751 110.195C164.049 110.2 164.344 110.145 164.621 110.035C164.898 109.925 165.151 109.761 165.364 109.554C165.578 109.346 165.748 109.098 165.866 108.824C165.983 108.551 166.046 108.256 166.05 107.958C166.054 107.66 165.999 107.365 165.888 107.088C165.778 106.811 165.614 106.559 165.406 106.346C165.197 106.133 164.949 105.963 164.675 105.845Z" fill="#E4E4E4"/>
<path d="M132.025 82.0498L104.332 70.1441C103.779 69.9067 103.155 69.8986 102.596 70.1214C102.037 70.3443 101.59 70.78 101.352 71.3327C101.115 71.8853 101.106 72.5097 101.329 73.0685C101.552 73.6274 101.987 74.0749 102.54 74.3127L130.233 86.2185C130.507 86.3363 130.801 86.399 131.099 86.4031C131.397 86.4072 131.693 86.3525 131.97 86.2422C132.247 86.1319 132.499 85.9681 132.713 85.7602C132.926 85.5523 133.097 85.3044 133.214 85.0306C133.332 84.7568 133.395 84.4625 133.399 84.1645C133.403 83.8665 133.348 83.5707 133.237 83.2939C133.127 83.0171 132.963 82.7648 132.755 82.5513C132.547 82.3378 132.299 82.1674 132.025 82.0498Z" fill="#E4E4E4"/>
<path d="M175.629 80.3653L111.744 52.9C111.191 52.6633 110.567 52.6557 110.009 52.8787C109.451 53.1017 109.004 53.5372 108.766 54.0895C108.529 54.6418 108.521 55.2657 108.743 55.8243C108.965 56.3829 109.4 56.8304 109.952 57.0686L173.837 84.534C174.111 84.6518 174.405 84.7145 174.703 84.7186C175.001 84.7226 175.297 84.668 175.574 84.5576C175.851 84.4473 176.103 84.2836 176.317 84.0757C176.53 83.8678 176.701 83.6199 176.818 83.3461C176.936 83.0723 176.999 82.778 177.003 82.48C177.007 82.182 176.952 81.8862 176.841 81.6094C176.731 81.3326 176.567 81.0802 176.359 80.8668C176.151 80.6533 175.903 80.4829 175.629 80.3653Z" fill="#BEDAFE"/>
<path d="M179.169 72.1352L115.284 44.6698C114.731 44.4329 114.107 44.4251 113.548 44.6481C112.99 44.8711 112.543 45.3066 112.306 45.859C112.068 46.4114 112.06 47.0355 112.282 47.5942C112.504 48.1528 112.939 48.6003 113.491 48.8384L177.377 76.3038C177.651 76.4225 177.945 76.486 178.244 76.4906C178.542 76.4953 178.839 76.441 179.116 76.3308C179.394 76.2207 179.647 76.0569 179.861 75.8488C180.075 75.6407 180.246 75.3924 180.363 75.1182C180.481 74.844 180.544 74.5492 180.548 74.2507C180.551 73.9522 180.496 73.6559 180.385 73.3788C180.274 73.1017 180.11 72.8492 179.901 72.6358C179.692 72.4224 179.444 72.2522 179.169 72.1352Z" fill="#BEDAFE"/>
<path d="M146.517 48.3399L118.824 36.4341C118.271 36.1967 117.647 36.1886 117.088 36.4115C116.53 36.6344 116.082 37.07 115.845 37.6227C115.607 38.1754 115.599 38.7997 115.821 39.3586C116.044 39.9174 116.479 40.3649 117.032 40.6028L144.725 52.5085C144.999 52.6263 145.293 52.6891 145.591 52.6931C145.889 52.6972 146.185 52.6425 146.462 52.5322C146.739 52.4219 146.991 52.2581 147.205 52.0502C147.418 51.8423 147.589 51.5944 147.707 51.3206C147.824 51.0468 147.887 50.7525 147.891 50.4546C147.895 50.1566 147.84 49.8607 147.73 49.5839C147.619 49.3071 147.455 49.0548 147.247 48.8413C147.039 48.6278 146.791 48.4575 146.517 48.3399Z" fill="#BEDAFE"/>
<path d="M77.5712 82.0063L23.1642 94.2468C21.7065 94.5765 20.4391 95.471 19.64 96.734C18.841 97.9969 18.5755 99.5253 18.9018 100.984L33.8208 167.296L97.7458 152.915C98.2711 152.798 98.7517 152.533 99.1303 152.151L84.3082 86.2687C83.9785 84.811 83.084 83.5436 81.821 82.7445C80.558 81.9455 79.0296 81.68 77.5712 82.0063Z" fill="#E6E6E6"/>
<path d="M57.8073 91.1374L27.9909 97.8455C26.6635 98.1455 25.5092 98.9597 24.7813 100.11C24.0534 101.259 23.8113 102.651 24.1081 103.979L38.1347 166.326L94.9094 153.553L84.6944 108.148C83.3785 102.331 79.8087 97.2725 74.7682 94.0835C69.7276 90.8944 63.628 89.8349 57.8073 91.1374Z" fill="white"/>
<path d="M82.9068 145.367L45.477 153.788C45.1531 153.861 44.8714 154.06 44.6939 154.34C44.5164 154.621 44.4577 154.96 44.5305 155.284C44.6034 155.608 44.8019 155.89 45.0825 156.067C45.363 156.245 45.7026 156.304 46.0265 156.231L83.4563 147.81C83.7802 147.737 84.0619 147.538 84.2394 147.258C84.4168 146.977 84.4756 146.638 84.4027 146.314C84.3299 145.99 84.1313 145.708 83.8508 145.531C83.5702 145.353 83.2307 145.295 82.9068 145.367Z" fill="#E4E4E4"/>
<path d="M60.6192 145.315L44.3939 148.966C44.2337 149.002 44.0822 149.069 43.948 149.164C43.8138 149.258 43.6995 149.378 43.6117 149.517C43.5239 149.656 43.4643 149.811 43.4363 149.972C43.4083 150.134 43.4124 150.3 43.4485 150.46C43.4845 150.62 43.5518 150.772 43.6464 150.906C43.741 151.04 43.8611 151.155 43.9998 151.242C44.1386 151.33 44.2933 151.39 44.4551 151.418C44.6169 151.446 44.7827 151.442 44.9429 151.406L61.1681 147.755C61.3287 147.72 61.4807 147.653 61.6153 147.558C61.7499 147.464 61.8646 147.344 61.9528 147.205C62.0409 147.066 62.1008 146.911 62.1289 146.749C62.1571 146.587 62.153 146.421 62.1169 146.26C62.0808 146.1 62.0134 145.948 61.9185 145.814C61.8237 145.679 61.7032 145.565 61.5641 145.477C61.425 145.389 61.2699 145.33 61.1077 145.302C60.9456 145.274 60.7796 145.279 60.6192 145.315Z" fill="#E4E4E4"/>
<path d="M79.5513 130.442L42.1215 138.863C41.9611 138.899 41.8094 138.966 41.6751 139.061C41.5407 139.155 41.4263 139.276 41.3385 139.415C41.161 139.695 41.1022 140.035 41.1751 140.359C41.2479 140.682 41.4465 140.964 41.727 141.142C42.0076 141.319 42.3471 141.378 42.671 141.305L80.1008 132.884C80.4247 132.811 80.7064 132.613 80.8839 132.332C81.0614 132.052 81.1201 131.712 81.0473 131.388C80.9744 131.064 80.7759 130.783 80.4953 130.605C80.2148 130.428 79.8752 130.369 79.5513 130.442Z" fill="#E4E4E4"/>
<path d="M78.4629 125.619L41.033 134.04C40.8725 134.075 40.7207 134.142 40.5862 134.237C40.4517 134.331 40.3371 134.452 40.2491 134.59C40.161 134.729 40.1012 134.884 40.0731 135.046C40.045 135.208 40.0491 135.374 40.0852 135.535C40.1213 135.695 40.1886 135.847 40.2834 135.981C40.3782 136.115 40.4986 136.23 40.6376 136.317C40.7766 136.405 40.9316 136.465 41.0936 136.492C41.2557 136.52 41.4216 136.516 41.5819 136.479L79.0118 128.059C79.1721 128.023 79.3238 127.955 79.4582 127.861C79.5925 127.766 79.7069 127.646 79.7949 127.507C79.8828 127.369 79.9425 127.214 79.9705 127.052C79.9986 126.89 79.9945 126.724 79.9584 126.564C79.9223 126.404 79.8551 126.252 79.7604 126.118C79.6657 125.983 79.5454 125.869 79.4065 125.781C79.2676 125.694 79.1128 125.634 78.9509 125.606C78.789 125.578 78.6231 125.582 78.4629 125.619Z" fill="#E4E4E4"/>
<path d="M56.1749 125.565L39.9496 129.215C39.6257 129.288 39.3441 129.486 39.1666 129.767C38.9891 130.048 38.9303 130.387 39.0032 130.711C39.0761 131.035 39.2746 131.317 39.5551 131.494C39.8357 131.671 40.1753 131.73 40.4991 131.657L56.7244 128.007C57.0482 127.934 57.3299 127.736 57.5074 127.455C57.6849 127.175 57.7437 126.835 57.6708 126.511C57.5979 126.187 57.3994 125.906 57.1188 125.728C56.8383 125.551 56.4987 125.492 56.1749 125.565Z" fill="#E4E4E4"/>
<path d="M75.106 110.691L37.6762 119.112C37.5158 119.148 37.3641 119.215 37.2298 119.31C37.0954 119.404 36.981 119.525 36.8932 119.664C36.7157 119.944 36.6569 120.284 36.7297 120.608C36.8026 120.931 37.0012 121.213 37.2817 121.391C37.5622 121.568 37.9018 121.627 38.2257 121.554L75.6555 113.133C75.8159 113.097 75.9676 113.03 76.1019 112.935C76.2363 112.84 76.3507 112.72 76.4386 112.581C76.5264 112.442 76.5861 112.287 76.6141 112.125C76.6422 111.963 76.638 111.797 76.602 111.637C76.5659 111.477 76.4986 111.325 76.4039 111.191C76.3092 111.056 76.1889 110.942 76.05 110.854C75.9111 110.766 75.7562 110.707 75.5943 110.678C75.4323 110.65 75.2664 110.655 75.106 110.691Z" fill="#E6E6E6"/>
<path d="M74.0201 105.868L36.5902 114.289C36.4299 114.325 36.2782 114.393 36.1438 114.487C36.0095 114.582 35.8951 114.702 35.8072 114.841C35.6297 115.122 35.5709 115.461 35.6438 115.785C35.7167 116.109 35.9152 116.391 36.1958 116.568C36.4763 116.746 36.8159 116.805 37.1397 116.732L74.5696 108.311C74.8935 108.238 75.1751 108.039 75.3526 107.759C75.5301 107.478 75.5889 107.139 75.516 106.815C75.4432 106.491 75.2446 106.209 74.9641 106.032C74.6835 105.854 74.344 105.796 74.0201 105.868Z" fill="#E6E6E6"/>
<path d="M51.7295 105.814L35.5043 109.464C35.1804 109.537 34.8988 109.735 34.7213 110.016C34.5438 110.297 34.485 110.636 34.5579 110.96C34.6307 111.284 34.8293 111.566 35.1098 111.743C35.3904 111.921 35.7299 111.979 36.0538 111.906L52.2791 108.256C52.4394 108.22 52.5911 108.153 52.7255 108.058C52.8598 107.963 52.9742 107.843 53.0621 107.704C53.15 107.565 53.2096 107.41 53.2377 107.248C53.2657 107.086 53.2616 106.921 53.2255 106.76C53.1894 106.6 53.1221 106.448 53.0274 106.314C52.9327 106.179 52.8124 106.065 52.6735 105.977C52.5346 105.889 52.3798 105.83 52.2178 105.802C52.0558 105.774 51.8899 105.778 51.7295 105.814Z" fill="#E6E6E6"/>
<path d="M1.64639 113.407C1.47074 113.407 1.2968 113.442 1.13451 113.509C0.972216 113.576 0.824743 113.675 0.700518 113.799C0.576293 113.923 0.477742 114.07 0.410495 114.233C0.343249 114.395 0.308624 114.569 0.308594 114.745C0.308594 114.795 0.349769 217.812 0.349769 217.812C0.386402 218.139 0.542244 218.441 0.787499 218.66C1.03275 218.879 1.3502 219 1.67912 219H187.98C188.309 219 188.626 218.879 188.871 218.66C189.117 218.441 189.272 218.139 189.309 217.812L200.905 114.895C200.926 114.708 200.908 114.518 200.851 114.339C200.793 114.159 200.699 113.994 200.574 113.854C200.449 113.712 200.295 113.6 200.123 113.523C199.951 113.446 199.765 113.406 199.576 113.407L1.64639 113.407Z" fill="#85B5F6"/>
<path d="M14.7946 119.111C12.9045 119.116 11.0925 119.865 9.75017 121.196C8.40785 122.527 7.64306 124.332 7.62109 126.222L7.85372 206.061C7.84543 207.008 8.02488 207.948 8.38168 208.825C8.73848 209.703 9.26558 210.501 9.93255 211.174C10.5995 211.847 11.3932 212.381 12.2676 212.745C13.1421 213.11 14.0801 213.297 15.0275 213.297H133.29C146.853 213.306 159.944 208.314 170.058 199.276C180.172 190.238 186.598 177.788 188.107 164.309L192.301 127.088C192.415 126.085 192.314 125.068 192.008 124.106C191.701 123.144 191.195 122.257 190.522 121.504C189.849 120.751 189.025 120.149 188.103 119.737C187.181 119.324 186.183 119.111 185.173 119.111H14.7946ZM196.025 119.111L196.004 118.648H196.025V119.111Z" fill="#BEDAFE"/>
</svg>
