<svg width="128" height="72" viewBox="0 0 128 72" fill="none" xmlns="http://www.w3.org/2000/svg">
<rect width="128" height="72" rx="4" fill="#BDBDBD"/>
<path d="M89.5 54C90.25 54 91 54.75 91 55.5C91 56.3438 90.25 57 89.5 57H38.5C37.6562 57 37 56.3438 37 55.5C37 54.75 37.6562 54 38.5 54H58V49.5C58 47.0625 59.9688 45 62.5 45H71.5C73.9375 45 76 47.0625 76 49.5V54H89.5ZM73 54V49.5C73 48.75 72.25 48 71.5 48H62.5C61.6562 48 61 48.75 61 49.5V54H73ZM41.2188 48C40.4688 47.9062 40 47.25 40 46.5V19.5C40 17.0625 41.9688 15 44.5 15H83.5C85.9375 15 88 17.0625 88 19.5V46.5C88 47.3438 87.25 48 86.5 48C85.6562 48 85 47.3438 85 46.5V19.5C85 18.75 84.25 18 83.5 18H44.5C43.6562 18 43 18.75 43 19.5V46.5C43 47.4375 42.1562 48.1875 41.2188 48Z" fill="black" fill-opacity="0.38"/>
</svg>
