<svg width="184" height="117" viewBox="0 0 184 117" fill="none" xmlns="http://www.w3.org/2000/svg">
<path d="M178.708 76.8714C177.662 83.4508 174.421 89.8369 169.073 93.8782C163.81 97.8584 157.067 99.2724 150.558 100.488C142.751 101.948 134.922 103.282 127.072 104.491C125.959 104.667 124.846 104.836 123.731 105H78.0087C77.9624 104.939 77.9136 104.875 77.8674 104.812C77.7929 104.705 77.7183 104.598 77.6463 104.491C77.6053 104.43 77.5641 104.367 77.5229 104.303H106.202C107.016 104.302 107.796 103.982 108.372 103.413C108.948 102.844 109.272 102.072 109.273 101.266V63.3819C109.458 62.8071 109.63 62.2298 109.787 61.6449C110.519 58.921 110.994 56.1362 111.208 53.3259C111.363 51.3675 111.409 49.4092 111.375 47.4484C111.28 42.0592 110.569 36.67 109.795 31.319C109.738 30.9248 109.679 30.528 109.623 30.1338C109.078 26.4156 108.582 22.3693 110.476 19.1113C112.642 15.3829 117.45 13.829 121.781 14.2105C129.57 14.8997 136.131 20.8026 139.541 27.7686C142.948 34.7321 143.712 42.6518 144.023 50.3833C144.187 54.483 144.169 58.7659 143.591 62.8783C145.544 58.4582 147.499 54.038 149.455 49.6178C150.499 47.2602 151.596 44.8263 153.528 43.1019C157.568 39.493 164.25 40.2204 168.564 43.5063C172.877 46.7948 175.241 51.9906 176.814 57.1458C178.762 63.5218 179.756 70.2919 178.708 76.8714Z" fill="#F2F2F2"/>
<path d="M161.477 41.1353C164.301 46.0866 165.597 51.7641 165.566 57.4298C165.523 63.0472 164.267 68.5905 161.883 73.6888C159.727 78.2922 156.724 82.4579 153.026 85.9724C149.377 89.4791 145.046 92.2166 140.297 94.0194C134.787 96.0634 128.826 96.6239 123.025 95.6437C122.219 95.5066 121.419 95.3405 120.625 95.1452C120.144 95.0277 119.938 95.7633 120.42 95.8809C126.457 97.3617 132.788 97.1815 138.728 95.3598C143.676 93.7845 148.242 91.214 152.138 87.8098C156.084 84.3964 159.346 80.2802 161.756 75.6753C164.394 70.6337 165.932 65.1004 166.273 59.4332C166.61 53.6825 165.635 47.8293 163.122 42.6126C162.818 41.9805 162.491 41.3597 162.142 40.7502C162.089 40.6665 162.005 40.6066 161.907 40.5831C161.81 40.5597 161.708 40.5745 161.621 40.6244C161.535 40.6744 161.472 40.7556 161.445 40.8509C161.418 40.9462 161.429 41.0481 161.477 41.1353Z" fill="white"/>
<path d="M120.562 14.1101C123.694 19.8241 126.135 25.8835 127.834 32.1629C131.235 44.7395 131.748 57.9104 129.333 70.7086C128.128 77.1028 126.162 83.3335 123.477 89.2704C120.799 95.1573 116.944 101.36 110.36 103.421C109.617 103.653 108.855 103.821 108.083 103.925C107.594 103.991 107.802 104.727 108.288 104.661C115.099 103.736 119.832 98.1353 122.8 92.4267C125.872 86.52 128.058 80.1057 129.513 73.6297C132.395 60.7081 132.291 47.3091 129.21 34.4326C127.678 28.018 125.39 21.8039 122.392 15.9185C122.015 15.1814 121.627 14.4503 121.228 13.725C120.991 13.2935 120.325 13.6782 120.562 14.1101Z" fill="white"/>
<path d="M88.324 13H42.1697C41.233 13.0012 40.3349 13.37 39.6725 14.0256C39.0101 14.6811 38.6374 15.5699 38.6362 16.497V39.3838H45.7393C46.2588 39.3824 46.7701 39.5123 47.2247 39.761C47.6793 40.0098 48.0623 40.3693 48.3373 40.8055L50.7993 44.684L53.1533 48.3895L53.5952 49.0863L56.2884 53.326L56.3193 53.3743H91.8575V16.497C91.8563 15.5699 91.4836 14.6811 90.8212 14.0256C90.1588 13.37 89.2607 13.0012 88.324 13Z" fill="#F2F2F2"/>
<path d="M70.0294 19.9961H47.1604C46.5541 19.9961 45.9727 20.2344 45.544 20.6587C45.1153 21.0829 44.8745 21.6583 44.8745 22.2583C44.8745 22.8583 45.1153 23.4337 45.544 23.858C45.9727 24.2822 46.5541 24.5206 47.1604 24.5206H70.0294C70.6356 24.5206 71.2171 24.2822 71.6457 23.858C72.0744 23.4337 72.3153 22.8583 72.3153 22.2583C72.3153 21.6583 72.0744 21.0829 71.6457 20.6587C71.2171 20.2344 70.6356 19.9961 70.0294 19.9961Z" fill="white"/>
<path d="M82.7117 31.1055H47.3688C46.707 31.1055 46.0724 31.3656 45.6044 31.8288C45.1364 32.2919 44.8735 32.92 44.8735 33.575C44.8735 34.2299 45.1364 34.8581 45.6044 35.3212C46.0724 35.7843 46.707 36.0445 47.3688 36.0445H82.7117C83.3735 36.0445 84.0082 35.7843 84.4761 35.3212C84.9441 34.8581 85.207 34.2299 85.207 33.575C85.207 32.92 84.9441 32.2919 84.4761 31.8288C84.0082 31.3656 83.3735 31.1055 82.7117 31.1055Z" fill="white"/>
<path d="M84.9681 41.1688C84.7672 40.7442 84.4484 40.385 84.0488 40.1332C83.6492 39.8814 83.1854 39.7475 82.7117 39.7471H47.3688C47.3149 39.7471 47.2634 39.7496 47.2095 39.7522C47.6706 40.0015 48.0591 40.3641 48.3377 40.8051L50.7996 44.6835H82.7117C83.1314 44.6837 83.5443 44.5789 83.9121 44.3789C84.2799 44.179 84.5908 43.8904 84.8158 43.5398C85.0409 43.1892 85.1728 42.7881 85.1995 42.3736C85.2261 41.9591 85.1465 41.5447 84.9681 41.1688Z" fill="white"/>
<path d="M85.1811 50.526C85.0998 49.9347 84.8048 49.3925 84.3508 48.9997C83.8968 48.607 83.3144 48.3903 82.7114 48.3896H53.1533L53.5953 49.0865L56.2884 53.3261H82.7114C83.2306 53.3272 83.737 53.1661 84.1583 52.8658C84.4819 52.6376 84.7456 52.3363 84.9275 51.9868C85.1094 51.6373 85.2043 51.2498 85.2042 50.8566C85.2044 50.746 85.1967 50.6355 85.1811 50.526Z" fill="white"/>
<path d="M113.393 32.71L109.795 31.3189L91.8575 24.391L70.3967 16.1025C69.5232 15.767 68.5509 15.788 67.693 16.1608C66.835 16.5336 66.1614 17.2279 65.8199 18.0914L65.0695 19.9963L63.2835 24.5207L60.688 31.1052L58.74 36.0443L57.2803 39.7473L55.3324 44.6837L53.8701 48.3892L53.8291 48.4961L53.5952 49.0861L56.2884 53.3257L56.3193 53.3741H106.202C106.66 53.3736 107.112 53.4749 107.526 53.6703C107.939 53.8657 108.302 54.1504 108.59 54.5033L108.8 53.9743L111.375 47.4482L115.4 37.2421C115.739 36.3776 115.719 35.4151 115.343 34.5655C114.966 33.716 114.265 33.0487 113.393 32.71Z" fill="#E0E0E0"/>
<path d="M93.7797 32.6442L91.8575 31.9016L72.4758 24.4168C71.9106 24.2003 71.2819 24.2139 70.7268 24.4545C70.1717 24.6951 69.7352 25.1432 69.5127 25.7011C69.2937 26.2607 69.3075 26.8834 69.5512 27.433C69.7949 27.9825 70.2486 28.4142 70.8131 28.6335L77.2146 31.1055L85.1323 34.1625L91.8575 36.7618L92.117 36.8609C92.6817 37.0779 93.3104 37.0643 93.865 36.823C94.4196 36.5817 94.8548 36.1325 95.075 35.5739C95.2953 35.0154 95.2826 34.3932 95.0397 33.8439C94.7969 33.2946 94.3437 32.8632 93.7797 32.6442Z" fill="white"/>
<path d="M101.51 47.5583L91.8576 43.8299L84.9678 41.1696L81.2878 39.7479L71.7023 36.0449L68.5877 34.842C68.0067 34.6175 67.3618 34.6164 66.78 34.8391C66.1983 35.0618 65.7219 35.492 65.4448 36.0449C65.414 36.1085 65.3832 36.1746 65.3574 36.2433C65.2383 36.5452 65.1804 36.8674 65.187 37.1915C65.1937 37.5156 65.2648 37.8352 65.3963 38.132C65.5278 38.4289 65.7171 38.6972 65.9534 38.9217C66.1897 39.1461 66.4684 39.3223 66.7735 39.4402L67.57 39.7479L80.3473 44.6844L91.8576 49.13L99.6955 52.1591C99.9838 52.2705 100.291 52.3274 100.6 52.3269C101.182 52.3279 101.746 52.1275 102.195 51.7603C102.643 51.3932 102.948 50.8824 103.056 50.3164C103.163 49.7504 103.068 49.1649 102.786 48.6612C102.504 48.1575 102.052 47.7674 101.51 47.5583Z" fill="white"/>
<path d="M91.8576 53.1051L91.2382 52.866L85.1812 50.5262L79.6483 48.3899L70.0525 44.6844L65.4114 42.8914C65.1061 42.7732 64.7801 42.7157 64.4523 42.7222C64.1245 42.7287 63.8012 42.7991 63.5009 42.9294C63.2006 43.0597 62.9292 43.2473 62.7022 43.4814C62.4752 43.7156 62.2971 43.9918 62.1781 44.2941C62.059 44.5964 62.0014 44.919 62.0084 45.2435C62.0154 45.5679 62.087 45.8878 62.219 46.1848C62.3511 46.4818 62.541 46.7501 62.7779 46.9745C63.0148 47.1988 63.2941 47.3747 63.5997 47.4921L65.9228 48.3899L77.5127 52.8661L78.7051 53.3264L78.8285 53.3747H92.554L91.8576 53.1051Z" fill="white"/>
<path d="M68.4129 53.3259L67.2205 52.8656L62.2375 50.9403C61.8894 50.8054 61.5151 50.7497 61.1423 50.7774C60.7694 50.8052 60.4077 50.9156 60.0839 51.1005C59.76 51.2854 59.4824 51.5401 59.2716 51.8456C59.0607 52.1512 58.9221 52.4998 58.8659 52.8656C58.8412 53.0177 58.8317 53.1719 58.8377 53.3259C58.8371 53.3421 58.838 53.3582 58.8403 53.3742H68.5388L68.4129 53.3259Z" fill="white"/>
<path d="M78.705 53.3258L77.5126 52.8655H58.8659C58.8412 53.0176 58.8317 53.1718 58.8377 53.3258H56.2884L56.3193 53.3741H78.8284L78.705 53.3258ZM78.705 53.3258H56.2884L56.3193 53.3741H78.8284L78.705 53.3258ZM78.705 53.3258H56.2884L56.3193 53.3741H78.8284L78.705 53.3258ZM78.8284 53.3741L78.705 53.3258H56.2884L56.3193 53.3741H78.8284ZM33.8538 104.303C33.0404 104.302 32.2607 103.981 31.6855 103.412C31.1104 102.843 30.7867 102.071 30.7855 101.266V42.4229C30.7862 41.6175 31.1096 40.8452 31.6848 40.2755C32.26 39.7058 33.04 39.385 33.8538 39.3837H38.6362V38.875H33.8538C32.9038 38.8768 31.9933 39.2512 31.3218 39.9162C30.6503 40.5813 30.2726 41.4827 30.2715 42.4229V101.266C30.2723 101.946 30.4706 102.612 30.8429 103.184C31.2151 103.756 31.7455 104.209 32.371 104.491H77.6462C77.6052 104.43 77.5641 104.367 77.5229 104.303H33.8538ZM108.8 53.9743C108.467 53.6239 108.064 53.3447 107.617 53.154C107.17 52.9633 106.689 52.8651 106.202 52.8655H56.6045L53.8291 48.4962L53.7622 48.3893L51.4084 44.6838L48.7716 40.5332C48.4485 40.0262 48.001 39.6083 47.4708 39.3183C46.9407 39.0284 46.345 38.8759 45.7393 38.875H33.8538C32.9038 38.8768 31.9933 39.2512 31.3218 39.9162C30.6503 40.5813 30.2726 41.4827 30.2715 42.4229V101.266C30.2723 101.946 30.4706 102.612 30.8429 103.184C31.2151 103.756 31.7455 104.209 32.371 104.491C32.836 104.703 33.3419 104.812 33.8538 104.812H106.202C106.715 104.812 107.222 104.703 107.688 104.491C108.313 104.209 108.844 103.756 109.216 103.184C109.588 102.612 109.786 101.946 109.787 101.266V56.4133C109.788 55.5049 109.434 54.6313 108.8 53.9743ZM109.273 101.266C109.272 102.072 108.948 102.844 108.372 103.413C107.796 103.982 107.016 104.302 106.202 104.303H33.8538C33.0404 104.302 32.2607 103.981 31.6855 103.412C31.1104 102.843 30.7867 102.071 30.7855 101.266V42.4229C30.7862 41.6175 31.1096 40.8452 31.6848 40.2755C32.26 39.7058 33.04 39.385 33.8538 39.3837H45.7393C46.2588 39.3823 46.7701 39.5121 47.2247 39.7609C47.6794 40.0097 48.0623 40.3692 48.3374 40.8053L50.7993 44.6838L53.1533 48.3893L53.5952 49.0862L56.2884 53.3258L56.3193 53.3741L106.202 53.3741C107.017 53.3748 107.797 53.6952 108.373 54.265C108.949 54.8349 109.273 55.6075 109.273 56.4133V101.266ZM78.705 53.3258H56.2884L56.3193 53.3741H78.8284L78.705 53.3258ZM78.705 53.3258H56.2884L56.3193 53.3741H78.8284L78.705 53.3258ZM78.705 53.3258H56.2884L56.3193 53.3741H78.8284L78.705 53.3258ZM78.705 53.3258L77.5126 52.8655H56.6045L53.8291 48.4962L53.5952 49.0862L56.2884 53.3258L56.3193 53.3741H78.8284L78.705 53.3258Z" fill="#D3D3D3"/>
<path d="M184 104.746C184 104.813 183.973 104.878 183.925 104.925C183.876 104.973 183.811 105 183.743 105H0.256983C0.188827 105 0.123462 104.973 0.0752685 104.925C0.0270747 104.878 0 104.813 0 104.746C0 104.678 0.0270747 104.613 0.0752685 104.566C0.123462 104.518 0.188827 104.491 0.256983 104.491H183.743C183.811 104.491 183.876 104.518 183.925 104.566C183.973 104.614 184 104.678 184 104.746Z" fill="#D3D3D3"/>
</svg>
