<svg width="120" height="120" viewBox="0 0 120 120" fill="none" xmlns="http://www.w3.org/2000/svg">
<rect width="120" height="120" rx="4" fill="#F6EB82"/>
<path d="M37.587 45.0356L48.9976 72.6526C49.3372 73.4811 48.9297 74.4477 48.1146 74.8619C47.2996 75.2071 46.2808 74.7929 45.9412 73.9644L43.6319 68.3029H28.4858L26.1765 73.9644C25.8369 74.7929 24.8181 75.2071 24.0031 74.8619C23.188 74.4477 22.7805 73.4811 23.1201 72.6526L34.5307 45.0356C34.8023 44.4143 35.4136 44 36.0928 44C36.7041 44 37.3154 44.4143 37.587 45.0356ZM42.2735 64.9889L36.0928 49.9376L29.8442 64.9889H42.2735Z" fill="black" fill-opacity="0.38"/>
<path d="M52.937 44H60.2723C64.8909 44 68.6944 47.8664 68.6944 52.5612C68.6944 54.9777 67.6756 57.1871 66.1134 58.706C68.8981 60.0869 70.8678 63.0557 70.8678 66.3697C70.8678 71.1336 67.0643 74.931 62.4457 74.931H52.937C50.8314 74.931 49.1334 73.2049 49.1334 71.0646V47.8664C49.1334 45.7951 50.8314 44 52.937 44ZM60.2723 57.8085C63.1249 57.8085 65.4342 55.461 65.4342 52.5612C65.4342 49.6615 63.1249 47.314 60.2723 47.314H52.937C52.5974 47.314 52.3936 47.5902 52.3936 47.8664V57.8085H60.2723ZM52.3936 61.1225V71.0646C52.3936 71.4098 52.5974 71.6169 52.937 71.6169H62.4457C65.2984 71.6169 67.6077 69.2695 67.6077 66.3697C67.6077 63.4699 65.2984 61.1225 62.4457 61.1225H52.3936Z" fill="black" fill-opacity="0.38"/>
<path d="M94.2323 50.9042C89.6137 46.1403 82.2104 46.1403 77.5919 50.9042C72.9733 55.6682 72.9733 63.3318 77.5919 68.0958C82.2104 72.8597 89.6137 72.8597 94.2323 68.0958C94.8435 67.4053 95.8623 67.4053 96.5415 68.0958C97.1528 68.7171 97.1528 69.8218 96.5415 70.4432C90.6325 76.5189 81.1237 76.5189 75.2826 70.4432C69.4415 64.4365 69.4415 54.6325 75.2826 48.5568C81.1237 42.5501 90.6325 42.5501 96.5415 48.5568C97.1528 49.1782 97.1528 50.2829 96.5415 50.9042C95.8623 51.5947 94.8435 51.5947 94.2323 50.9042Z" fill="black" fill-opacity="0.38"/>
</svg>
