<svg width="128" height="72" viewBox="0 0 128 72" fill="none" xmlns="http://www.w3.org/2000/svg">
<rect width="128" height="72" rx="4" fill="#F6EB82"/>
<path d="M41.587 21.0356L52.9976 48.6526C53.3372 49.4811 52.9297 50.4477 52.1146 50.8619C51.2996 51.2071 50.2808 50.7929 49.9412 49.9644L47.6319 44.3029H32.4858L30.1765 49.9644C29.8369 50.7929 28.8181 51.2071 28.0031 50.8619C27.188 50.4477 26.7805 49.4811 27.1201 48.6526L38.5307 21.0356C38.8023 20.4143 39.4136 20 40.0928 20C40.7041 20 41.3154 20.4143 41.587 21.0356ZM46.2735 40.9889L40.0928 25.9376L33.8442 40.9889H46.2735Z" fill="black" fill-opacity="0.38"/>
<path d="M56.937 20H64.2723C68.8909 20 72.6944 23.8664 72.6944 28.5612C72.6944 30.9777 71.6756 33.1871 70.1134 34.706C72.8981 36.0869 74.8678 39.0557 74.8678 42.3697C74.8678 47.1336 71.0643 50.931 66.4457 50.931H56.937C54.8314 50.931 53.1334 49.2049 53.1334 47.0646V23.8664C53.1334 21.7951 54.8314 20 56.937 20ZM64.2723 33.8085C67.1249 33.8085 69.4342 31.461 69.4342 28.5612C69.4342 25.6615 67.1249 23.314 64.2723 23.314H56.937C56.5974 23.314 56.3936 23.5902 56.3936 23.8664V33.8085H64.2723ZM56.3936 37.1225V47.0646C56.3936 47.4098 56.5974 47.6169 56.937 47.6169H66.4457C69.2984 47.6169 71.6077 45.2695 71.6077 42.3697C71.6077 39.4699 69.2984 37.1225 66.4457 37.1225H56.3936Z" fill="black" fill-opacity="0.38"/>
<path d="M98.2323 26.9042C93.6137 22.1403 86.2104 22.1403 81.5919 26.9042C76.9733 31.6682 76.9733 39.3318 81.5919 44.0958C86.2104 48.8597 93.6137 48.8597 98.2323 44.0958C98.8435 43.4053 99.8623 43.4053 100.542 44.0958C101.153 44.7171 101.153 45.8218 100.542 46.4432C94.6325 52.5189 85.1237 52.5189 79.2826 46.4432C73.4415 40.4365 73.4415 30.6325 79.2826 24.5568C85.1237 18.5501 94.6325 18.5501 100.542 24.5568C101.153 25.1782 101.153 26.2829 100.542 26.9042C99.8623 27.5947 98.8435 27.5947 98.2323 26.9042Z" fill="black" fill-opacity="0.38"/>
</svg>
