<svg width="128" height="72" viewBox="0 0 128 72" fill="none" xmlns="http://www.w3.org/2000/svg">
<rect width="128" height="72" rx="4" fill="#FFA767"/>
<path d="M62.5 17.25C62.5 14.4375 64.8438 12 67.75 12C70.5625 12 73 14.4375 73 17.25C73 20.1562 70.5625 22.5 67.75 22.5C64.8438 22.5 62.5 20.1562 62.5 17.25ZM67.75 19.5C68.9688 19.5 70 18.5625 70 17.25C70 16.0312 68.9688 15 67.75 15C66.4375 15 65.5 16.0312 65.5 17.25C65.5 18.5625 66.4375 19.5 67.75 19.5ZM60.3438 28.0312C60.25 28.0312 60.0625 28.125 59.9688 28.2188L57.625 29.4375C55.75 30.4688 54.4375 32.1562 53.9688 34.2188L53.4062 36.375C53.2188 37.2188 52.375 37.6875 51.625 37.5C50.7812 37.3125 50.3125 36.4688 50.5 35.7188L51.0625 33.4688C51.7188 30.6562 53.5938 28.2188 56.2188 26.8125L58.4688 25.5938C60.3438 24.5625 62.4062 24 64.5625 24C67.9375 24 71.0312 26.25 72.1562 29.4375L74.2188 35.0625L78.25 37.7812C79 38.25 79.1875 39.1875 78.7188 39.8438C78.25 40.5938 77.3125 40.7812 76.6562 40.3125L72.5312 37.5938C71.9688 37.2188 71.5938 36.6562 71.4062 36.0938L70.0938 32.625L66.5312 43.0312L70.5625 46.5938C71.0312 46.9688 71.3125 47.5312 71.5 48.0938L74.4062 58.125C74.5938 58.9688 74.125 59.7188 73.375 60C72.5312 60.1875 71.7812 59.7188 71.5 58.9688L68.5938 48.8438L59.2188 40.6875C57.8125 39.5625 57.3438 37.6875 57.8125 36L60.3438 28.0312ZM63.8125 27.0938L60.7188 36.8438C60.5312 37.4062 60.7188 38.0625 61.1875 38.4375L64.0938 40.9688L68.3125 28.6875C67.375 27.6562 65.9688 27 64.5625 27C64.2812 27 64 27.0938 63.8125 27.0938ZM57.9062 52.9688C57.7188 53.25 57.5312 53.5312 57.3438 53.8125L51.5312 59.625C50.9688 60.1875 49.9375 60.1875 49.375 59.625C48.8125 59.0625 48.8125 58.0312 49.375 57.4688L55.1875 51.6562L58.0938 45.8438C58.4688 45.0938 59.4062 44.8125 60.1562 45.1875C60.9062 45.5625 61.1875 46.5 60.8125 47.25L57.9062 52.9688Z" fill="black" fill-opacity="0.38"/>
</svg>
