<svg width="120" height="120" viewBox="0 0 120 120" fill="none" xmlns="http://www.w3.org/2000/svg">
<rect width="120" height="120" rx="4" fill="#FFA767"/>
<path d="M58.5 41.25C58.5 38.4375 60.8438 36 63.75 36C66.5625 36 69 38.4375 69 41.25C69 44.1562 66.5625 46.5 63.75 46.5C60.8438 46.5 58.5 44.1562 58.5 41.25ZM63.75 43.5C64.9688 43.5 66 42.5625 66 41.25C66 40.0312 64.9688 39 63.75 39C62.4375 39 61.5 40.0312 61.5 41.25C61.5 42.5625 62.4375 43.5 63.75 43.5ZM56.3438 52.0312C56.25 52.0312 56.0625 52.125 55.9688 52.2188L53.625 53.4375C51.75 54.4688 50.4375 56.1562 49.9688 58.2188L49.4062 60.375C49.2188 61.2188 48.375 61.6875 47.625 61.5C46.7812 61.3125 46.3125 60.4688 46.5 59.7188L47.0625 57.4688C47.7188 54.6562 49.5938 52.2188 52.2188 50.8125L54.4688 49.5938C56.3438 48.5625 58.4062 48 60.5625 48C63.9375 48 67.0312 50.25 68.1562 53.4375L70.2188 59.0625L74.25 61.7812C75 62.25 75.1875 63.1875 74.7188 63.8438C74.25 64.5938 73.3125 64.7812 72.6562 64.3125L68.5312 61.5938C67.9688 61.2188 67.5938 60.6562 67.4062 60.0938L66.0938 56.625L62.5312 67.0312L66.5625 70.5938C67.0312 70.9688 67.3125 71.5312 67.5 72.0938L70.4062 82.125C70.5938 82.9688 70.125 83.7188 69.375 84C68.5312 84.1875 67.7812 83.7188 67.5 82.9688L64.5938 72.8438L55.2188 64.6875C53.8125 63.5625 53.3438 61.6875 53.8125 60L56.3438 52.0312ZM59.8125 51.0938L56.7188 60.8438C56.5312 61.4062 56.7188 62.0625 57.1875 62.4375L60.0938 64.9688L64.3125 52.6875C63.375 51.6562 61.9688 51 60.5625 51C60.2812 51 60 51.0938 59.8125 51.0938ZM53.9062 76.9688C53.7188 77.25 53.5312 77.5312 53.3438 77.8125L47.5312 83.625C46.9688 84.1875 45.9375 84.1875 45.375 83.625C44.8125 83.0625 44.8125 82.0312 45.375 81.4688L51.1875 75.6562L54.0938 69.8438C54.4688 69.0938 55.4062 68.8125 56.1562 69.1875C56.9062 69.5625 57.1875 70.5 56.8125 71.25L53.9062 76.9688Z" fill="black" fill-opacity="0.38"/>
</svg>
