<svg width="110" height="109" viewBox="0 0 110 109" fill="none" xmlns="http://www.w3.org/2000/svg">
<rect x="0.5" width="109" height="109" rx="54.5" fill="#3484F0" fill-opacity="0.04"/>
<path d="M55 30.5C66.625 30.5 74.5 33.875 74.5 38V39.5V41H76C77.5938 41 79 42.4062 79 44V50C79 51.6875 77.5938 53 76 53H74.5V55.7188C75.3438 56.4688 76 57.6875 76 59V68C76 69.9688 74.6875 71.6562 73 72.3125V75.5C73 77.1875 71.5938 78.5 70 78.5H67C65.3125 78.5 64 77.1875 64 75.5V72.5H46V75.5C46 77.1875 44.5938 78.5 43 78.5H40C38.3125 78.5 37 77.1875 37 75.5V72.3125C35.2188 71.6562 34 69.9688 34 68V59C34 57.6875 34.5625 56.4688 35.5 55.7188V53H34C32.3125 53 31 51.6875 31 50V44C31 42.4062 32.3125 41 34 41H35.5V39.5V38C35.5 33.875 43.2812 30.5 55 30.5ZM41.5 45.5V51.5C41.5 53.1875 42.8125 54.5 44.5 54.5H53.5V42.5H44.5C42.8125 42.5 41.5 43.9062 41.5 45.5ZM56.5 54.5H65.5C67.0938 54.5 68.5 53.1875 68.5 51.5V45.5C68.5 43.9062 67.0938 42.5 65.5 42.5H56.5V54.5ZM41.5 66.5C43.0938 66.5 44.5 65.1875 44.5 63.5C44.5 61.9062 43.0938 60.5 41.5 60.5C39.8125 60.5 38.5 61.9062 38.5 63.5C38.5 65.1875 39.8125 66.5 41.5 66.5ZM68.5 66.5C70.0938 66.5 71.5 65.1875 71.5 63.5C71.5 61.9062 70.0938 60.5 68.5 60.5C66.8125 60.5 65.5 61.9062 65.5 63.5C65.5 65.1875 66.8125 66.5 68.5 66.5ZM64 38C64 37.25 63.25 36.5 62.5 36.5H47.5C46.6562 36.5 46 37.25 46 38C46 38.8438 46.6562 39.5 47.5 39.5H62.5C63.25 39.5 64 38.8438 64 38Z" fill="#3484F0"/>
</svg>
