<svg width="120" height="120" viewBox="0 0 120 120" fill="none" xmlns="http://www.w3.org/2000/svg">
<rect width="120" height="120" rx="4" fill="#F19B96"/>
<path d="M67.5 48C66.6562 48 66 47.3438 66 46.5C66 45.75 66.6562 45 67.5 45H72V40.5C72 39.75 72.6562 39.0938 73.5 39.0938C74.25 39.0938 75 39.75 75 40.5V45H79.5C80.25 45 81 45.75 81 46.5C81 47.3438 80.25 48 79.5 48H75V52.5C75 53.3438 74.25 54.0938 73.5 54.0938C72.6562 54.0938 72 53.3438 72 52.5V48H67.5ZM51.75 68.25C52.3125 68.8125 52.3125 69.75 51.75 70.4062L48.5625 73.5L51.75 76.6875C52.3125 77.3438 52.3125 78.2812 51.75 78.8438C51.1875 79.4062 50.25 79.4062 49.5938 78.8438L46.5 75.6562L43.3125 78.8438C42.6562 79.4062 41.7188 79.4062 41.1562 78.8438C40.5938 78.2812 40.5938 77.3438 41.1562 76.6875L44.3438 73.5L41.1562 70.4062C40.5938 69.75 40.5938 68.8125 41.1562 68.25C41.7188 67.6875 42.6562 67.6875 43.3125 68.25L46.5 71.4375L49.5938 68.25C50.25 67.6875 51.1875 67.6875 51.75 68.25ZM40.5 48C39.6562 48 39 47.3438 39 46.5C39 45.75 39.6562 45 40.5 45H52.5C53.25 45 54 45.75 54 46.5C54 47.3438 53.25 48 52.5 48H40.5ZM82.5 58.5C83.25 58.5 84 59.25 84 60C84 60.8438 83.25 61.5 82.5 61.5H61.5V82.5C61.5 83.3438 60.75 84 60 84C59.1562 84 58.5 83.3438 58.5 82.5V61.5H37.5C36.6562 61.5 36 60.8438 36 60C36 59.25 36.6562 58.5 37.5 58.5H58.5V37.5C58.5 36.75 59.1562 36 60 36C60.75 36 61.5 36.75 61.5 37.5V58.5H82.5ZM79.5 75C80.25 75 81 75.75 81 76.5C81 77.3438 80.25 78 79.5 78H67.5C66.6562 78 66 77.3438 66 76.5C66 75.75 66.6562 75 67.5 75H79.5ZM79.5 69C80.25 69 81 69.75 81 70.5C81 71.3438 80.25 72 79.5 72H67.5C66.6562 72 66 71.3438 66 70.5C66 69.75 66.6562 69 67.5 69H79.5Z" fill="black" fill-opacity="0.38"/>
</svg>
