<svg width="128" height="72" viewBox="0 0 128 72" fill="none" xmlns="http://www.w3.org/2000/svg">
<rect width="128" height="72" rx="4" fill="#F19B96"/>
<path d="M71.5 24C70.6562 24 70 23.3438 70 22.5C70 21.75 70.6562 21 71.5 21H76V16.5C76 15.75 76.6562 15.0938 77.5 15.0938C78.25 15.0938 79 15.75 79 16.5V21H83.5C84.25 21 85 21.75 85 22.5C85 23.3438 84.25 24 83.5 24H79V28.5C79 29.3438 78.25 30.0938 77.5 30.0938C76.6562 30.0938 76 29.3438 76 28.5V24H71.5ZM55.75 44.25C56.3125 44.8125 56.3125 45.75 55.75 46.4062L52.5625 49.5L55.75 52.6875C56.3125 53.3438 56.3125 54.2812 55.75 54.8438C55.1875 55.4062 54.25 55.4062 53.5938 54.8438L50.5 51.6562L47.3125 54.8438C46.6562 55.4062 45.7188 55.4062 45.1562 54.8438C44.5938 54.2812 44.5938 53.3438 45.1562 52.6875L48.3438 49.5L45.1562 46.4062C44.5938 45.75 44.5938 44.8125 45.1562 44.25C45.7188 43.6875 46.6562 43.6875 47.3125 44.25L50.5 47.4375L53.5938 44.25C54.25 43.6875 55.1875 43.6875 55.75 44.25ZM44.5 24C43.6562 24 43 23.3438 43 22.5C43 21.75 43.6562 21 44.5 21H56.5C57.25 21 58 21.75 58 22.5C58 23.3438 57.25 24 56.5 24H44.5ZM86.5 34.5C87.25 34.5 88 35.25 88 36C88 36.8438 87.25 37.5 86.5 37.5H65.5V58.5C65.5 59.3438 64.75 60 64 60C63.1562 60 62.5 59.3438 62.5 58.5V37.5H41.5C40.6562 37.5 40 36.8438 40 36C40 35.25 40.6562 34.5 41.5 34.5H62.5V13.5C62.5 12.75 63.1562 12 64 12C64.75 12 65.5 12.75 65.5 13.5V34.5H86.5ZM83.5 51C84.25 51 85 51.75 85 52.5C85 53.3438 84.25 54 83.5 54H71.5C70.6562 54 70 53.3438 70 52.5C70 51.75 70.6562 51 71.5 51H83.5ZM83.5 45C84.25 45 85 45.75 85 46.5C85 47.3438 84.25 48 83.5 48H71.5C70.6562 48 70 47.3438 70 46.5C70 45.75 70.6562 45 71.5 45H83.5Z" fill="black" fill-opacity="0.38"/>
</svg>
