<svg width="120" height="120" viewBox="0 0 120 120" fill="none" xmlns="http://www.w3.org/2000/svg">
<rect width="120" height="120" rx="4" fill="#A5C1FA"/>
<path d="M69 48C70.5938 48 72 49.4062 72 51V69C72 70.6875 70.5938 72 69 72H51C49.3125 72 48 70.6875 48 69V51C48 49.4062 49.3125 48 51 48H69ZM69 69V51H51V69H69ZM82.5 61.5H78V67.5H82.5C83.25 67.5 84 68.25 84 69C84 69.8438 83.25 70.5 82.5 70.5H78V72C78 75.375 75.2812 78 72 78H70.5V82.5C70.5 83.3438 69.75 84 69 84C68.1562 84 67.5 83.3438 67.5 82.5V78H61.5V82.5C61.5 83.3438 60.75 84 60 84C59.1562 84 58.5 83.3438 58.5 82.5V78H52.5V82.5C52.5 83.3438 51.75 84 51 84C50.1562 84 49.5 83.3438 49.5 82.5V78H48C44.625 78 42 75.375 42 72V70.5H37.5C36.6562 70.5 36 69.8438 36 69C36 68.25 36.6562 67.5 37.5 67.5H42V61.5H37.5C36.6562 61.5 36 60.8438 36 60C36 59.25 36.6562 58.5 37.5 58.5H42V52.5H37.5C36.6562 52.5 36 51.8438 36 51C36 50.25 36.6562 49.5 37.5 49.5H42V48C42 44.7188 44.625 42 48 42H49.5V37.5C49.5 36.75 50.1562 36 51 36C51.75 36 52.5 36.75 52.5 37.5V42H58.5V37.5C58.5 36.75 59.1562 36 60 36C60.75 36 61.5 36.75 61.5 37.5V42H67.5V37.5C67.5 36.75 68.1562 36 69 36C69.75 36 70.5 36.75 70.5 37.5V42H72C75.2812 42 78 44.7188 78 48V49.5H82.5C83.25 49.5 84 50.25 84 51C84 51.8438 83.25 52.5 82.5 52.5H78V58.5H82.5C83.25 58.5 84 59.25 84 60C84 60.8438 83.25 61.5 82.5 61.5ZM75 72V48C75 46.4062 73.5938 45 72 45H48C46.3125 45 45 46.4062 45 48V72C45 73.6875 46.3125 75 48 75H72C73.5938 75 75 73.6875 75 72Z" fill="black" fill-opacity="0.38"/>
</svg>
