<svg width="128" height="72" viewBox="0 0 128 72" fill="none" xmlns="http://www.w3.org/2000/svg">
<rect width="128" height="72" rx="4" fill="#A5C1FA"/>
<path d="M73 24C74.5938 24 76 25.4062 76 27V45C76 46.6875 74.5938 48 73 48H55C53.3125 48 52 46.6875 52 45V27C52 25.4062 53.3125 24 55 24H73ZM73 45V27H55V45H73ZM86.5 37.5H82V43.5H86.5C87.25 43.5 88 44.25 88 45C88 45.8438 87.25 46.5 86.5 46.5H82V48C82 51.375 79.2812 54 76 54H74.5V58.5C74.5 59.3438 73.75 60 73 60C72.1562 60 71.5 59.3438 71.5 58.5V54H65.5V58.5C65.5 59.3438 64.75 60 64 60C63.1562 60 62.5 59.3438 62.5 58.5V54H56.5V58.5C56.5 59.3438 55.75 60 55 60C54.1562 60 53.5 59.3438 53.5 58.5V54H52C48.625 54 46 51.375 46 48V46.5H41.5C40.6562 46.5 40 45.8438 40 45C40 44.25 40.6562 43.5 41.5 43.5H46V37.5H41.5C40.6562 37.5 40 36.8438 40 36C40 35.25 40.6562 34.5 41.5 34.5H46V28.5H41.5C40.6562 28.5 40 27.8438 40 27C40 26.25 40.6562 25.5 41.5 25.5H46V24C46 20.7188 48.625 18 52 18H53.5V13.5C53.5 12.75 54.1562 12 55 12C55.75 12 56.5 12.75 56.5 13.5V18H62.5V13.5C62.5 12.75 63.1562 12 64 12C64.75 12 65.5 12.75 65.5 13.5V18H71.5V13.5C71.5 12.75 72.1562 12 73 12C73.75 12 74.5 12.75 74.5 13.5V18H76C79.2812 18 82 20.7188 82 24V25.5H86.5C87.25 25.5 88 26.25 88 27C88 27.8438 87.25 28.5 86.5 28.5H82V34.5H86.5C87.25 34.5 88 35.25 88 36C88 36.8438 87.25 37.5 86.5 37.5ZM79 48V24C79 22.4062 77.5938 21 76 21H52C50.3125 21 49 22.4062 49 24V48C49 49.6875 50.3125 51 52 51H76C77.5938 51 79 49.6875 79 48Z" fill="black" fill-opacity="0.38"/>
</svg>
