<svg width="120" height="120" viewBox="0 0 120 120" fill="none" xmlns="http://www.w3.org/2000/svg">
<rect width="120" height="120" rx="4" fill="#C4ED9F"/>
<path d="M51 39V65.0625L47.8125 70.125C47.9062 69.75 48 69.375 48 69V54H36V69C36 72.375 38.625 75 42 75C43.4062 75 44.7188 74.5312 45.75 73.6875C45.2812 74.9062 45 76.2188 45 77.5312C43.9688 77.9062 43.0312 78 42 78C36.9375 78 33 73.9688 33 69V39H31.5C30.6562 39 30 38.3438 30 37.5C30 36.75 30.6562 36 31.5 36H52.5C53.25 36 54 36.75 54 37.5C54 38.3438 53.25 39 52.5 39H51ZM36 51H48V39H36V51ZM79.5 36C80.25 36 81 36.75 81 37.5C81 38.3438 80.25 39 79.5 39H78V56.625L89.0625 74.625C89.625 75.5625 90 76.6875 90 77.9062C90 81.2812 87.1875 84 83.8125 84H54.0938C50.7188 84 48 81.2812 48 77.9062C48 76.6875 48.2812 75.5625 48.8438 74.625L60 56.625V39H58.5C57.6562 39 57 38.3438 57 37.5C57 36.75 57.6562 36 58.5 36H79.5ZM75 39H63V57C63 57.2812 62.9062 57.5625 62.7188 57.8438L57.6562 66H80.25L75.1875 57.8438C75 57.5625 75 57.2812 75 57V39ZM51 77.9062C51 79.5938 52.4062 81 54.0938 81H83.8125C85.5 81 87 79.5938 87 77.9062C87 77.25 86.8125 76.6875 86.4375 76.2188L82.0312 69H55.875L51.4688 76.2188C51.0938 76.6875 51 77.25 51 77.9062Z" fill="black" fill-opacity="0.38"/>
</svg>
