<svg width="128" height="72" viewBox="0 0 128 72" fill="none" xmlns="http://www.w3.org/2000/svg">
<rect width="128" height="72" rx="4" fill="#C4ED9F"/>
<path d="M55 15V41.0625L51.8125 46.125C51.9062 45.75 52 45.375 52 45V30H40V45C40 48.375 42.625 51 46 51C47.4062 51 48.7188 50.5312 49.75 49.6875C49.2812 50.9062 49 52.2188 49 53.5312C47.9688 53.9062 47.0312 54 46 54C40.9375 54 37 49.9688 37 45V15H35.5C34.6562 15 34 14.3438 34 13.5C34 12.75 34.6562 12 35.5 12H56.5C57.25 12 58 12.75 58 13.5C58 14.3438 57.25 15 56.5 15H55ZM40 27H52V15H40V27ZM83.5 12C84.25 12 85 12.75 85 13.5C85 14.3438 84.25 15 83.5 15H82V32.625L93.0625 50.625C93.625 51.5625 94 52.6875 94 53.9062C94 57.2812 91.1875 60 87.8125 60H58.0938C54.7188 60 52 57.2812 52 53.9062C52 52.6875 52.2812 51.5625 52.8438 50.625L64 32.625V15H62.5C61.6562 15 61 14.3438 61 13.5C61 12.75 61.6562 12 62.5 12H83.5ZM79 15H67V33C67 33.2812 66.9062 33.5625 66.7188 33.8438L61.6562 42H84.25L79.1875 33.8438C79 33.5625 79 33.2812 79 33V15ZM55 53.9062C55 55.5938 56.4062 57 58.0938 57H87.8125C89.5 57 91 55.5938 91 53.9062C91 53.25 90.8125 52.6875 90.4375 52.2188L86.0312 45H59.875L55.4688 52.2188C55.0938 52.6875 55 53.25 55 53.9062Z" fill="black" fill-opacity="0.38"/>
</svg>
