<svg width="128" height="72" viewBox="0 0 128 72" fill="none" xmlns="http://www.w3.org/2000/svg">
<rect width="128" height="72" rx="4" fill="#B49BF8"/>
<path d="M63.9062 42C58.5625 42 54.1562 37.6875 54.25 32.25C54.25 26.9062 58.5625 22.5 63.9062 22.5C69.25 22.5 73.6562 26.9062 73.6562 32.25C73.6562 37.6875 69.3438 42 63.9062 42ZM63.9062 25.5C60.25 25.5 57.1562 28.5938 57.1562 32.25C57.1562 36 60.25 39 63.9062 39C67.6562 39 70.6562 36 70.6562 32.25C70.6562 28.5938 67.6562 25.5 63.9062 25.5ZM68.5938 45C76 45 82 50.625 82 57.5625C82 58.9688 80.7812 60 79.2812 60H48.625C47.125 60 46 58.9688 46 57.5625C46 50.625 51.9062 45 59.3125 45H68.5938ZM49 57H78.9062C78.625 52.0312 74.125 48 68.5938 48H59.2188C53.7812 48 49.2812 52.0312 49 57ZM82 27C77.7812 27 74.5 23.7188 74.5 19.5C74.5 15.375 77.7812 12 82 12C86.125 12 89.5 15.375 89.5 19.5C89.5 23.7188 86.125 27 82 27ZM82 15C79.4688 15 77.5 17.0625 77.5 19.5C77.5 22.0312 79.4688 24 82 24C84.4375 24 86.5 22.0312 86.5 19.5C86.5 17.0625 84.4375 15 82 15ZM46 27C41.7812 27 38.5 23.7188 38.5 19.5C38.5 15.375 41.7812 12 46 12C50.125 12 53.5 15.375 53.5 19.5C53.5 23.7188 50.125 27 46 27ZM46 15C43.4688 15 41.5 17.0625 41.5 19.5C41.5 22.0312 43.4688 24 46 24C48.4375 24 50.5 22.0312 50.5 19.5C50.5 17.0625 48.4375 15 46 15ZM86.5938 30C90.625 30 94 33.5625 94 37.7812V39C94 39.8438 93.25 40.5 92.5 40.5C91.6562 40.5 91 39.8438 91 39V37.7812C91 35.1562 88.9375 33 86.5938 33H80.5C79.8438 33 79.2812 33.1875 78.7188 33.4688C77.9688 33.8438 77.0312 33.4688 76.6562 32.7188C76.375 31.9688 76.6562 31.125 77.4062 30.75C78.3438 30.2812 79.375 30 80.5 30H86.5938ZM49.1875 33.4688C48.625 33.1875 48.0625 33 47.5 33H41.3125C38.9688 33 37 35.1562 37 37.7812V39C37 39.8438 36.25 40.5 35.5 40.5C34.6562 40.5 34 39.8438 34 39V37.7812C34 33.5625 37.2812 30 41.3125 30H47.5C48.5312 30 49.5625 30.2812 50.5 30.75C51.25 31.125 51.5312 31.9688 51.25 32.7188C50.875 33.4688 49.9375 33.8438 49.1875 33.4688Z" fill="black" fill-opacity="0.38"/>
</svg>
