<svg width="120" height="120" viewBox="0 0 120 120" fill="none" xmlns="http://www.w3.org/2000/svg">
<rect width="120" height="120" rx="4" fill="#B49BF8"/>
<path d="M59.9062 66C54.5625 66 50.1562 61.6875 50.25 56.25C50.25 50.9062 54.5625 46.5 59.9062 46.5C65.25 46.5 69.6562 50.9062 69.6562 56.25C69.6562 61.6875 65.3438 66 59.9062 66ZM59.9062 49.5C56.25 49.5 53.1562 52.5938 53.1562 56.25C53.1562 60 56.25 63 59.9062 63C63.6562 63 66.6562 60 66.6562 56.25C66.6562 52.5938 63.6562 49.5 59.9062 49.5ZM64.5938 69C72 69 78 74.625 78 81.5625C78 82.9688 76.7812 84 75.2812 84H44.625C43.125 84 42 82.9688 42 81.5625C42 74.625 47.9062 69 55.3125 69H64.5938ZM45 81H74.9062C74.625 76.0312 70.125 72 64.5938 72H55.2188C49.7812 72 45.2812 76.0312 45 81ZM78 51C73.7812 51 70.5 47.7188 70.5 43.5C70.5 39.375 73.7812 36 78 36C82.125 36 85.5 39.375 85.5 43.5C85.5 47.7188 82.125 51 78 51ZM78 39C75.4688 39 73.5 41.0625 73.5 43.5C73.5 46.0312 75.4688 48 78 48C80.4375 48 82.5 46.0312 82.5 43.5C82.5 41.0625 80.4375 39 78 39ZM42 51C37.7812 51 34.5 47.7188 34.5 43.5C34.5 39.375 37.7812 36 42 36C46.125 36 49.5 39.375 49.5 43.5C49.5 47.7188 46.125 51 42 51ZM42 39C39.4688 39 37.5 41.0625 37.5 43.5C37.5 46.0312 39.4688 48 42 48C44.4375 48 46.5 46.0312 46.5 43.5C46.5 41.0625 44.4375 39 42 39ZM82.5938 54C86.625 54 90 57.5625 90 61.7812V63C90 63.8438 89.25 64.5 88.5 64.5C87.6562 64.5 87 63.8438 87 63V61.7812C87 59.1562 84.9375 57 82.5938 57H76.5C75.8438 57 75.2812 57.1875 74.7188 57.4688C73.9688 57.8438 73.0312 57.4688 72.6562 56.7188C72.375 55.9688 72.6562 55.125 73.4062 54.75C74.3438 54.2812 75.375 54 76.5 54H82.5938ZM45.1875 57.4688C44.625 57.1875 44.0625 57 43.5 57H37.3125C34.9688 57 33 59.1562 33 61.7812V63C33 63.8438 32.25 64.5 31.5 64.5C30.6562 64.5 30 63.8438 30 63V61.7812C30 57.5625 33.2812 54 37.3125 54H43.5C44.5312 54 45.5625 54.2812 46.5 54.75C47.25 55.125 47.5312 55.9688 47.25 56.7188C46.875 57.4688 45.9375 57.8438 45.1875 57.4688Z" fill="black" fill-opacity="0.38"/>
</svg>
