<svg width="320" height="180" viewBox="0 0 320 180" fill="none" xmlns="http://www.w3.org/2000/svg">
<g clip-path="url(#clip0_1027_56594)">
<rect width="320" height="180" fill="#3486F0"/>
<g opacity="0.3">
<path d="M307.85 -21.5413L318.716 -18.6296L319.924 -18.306C320.565 -18.1342 320.979 -17.4165 320.808 -16.7751L317.572 -4.70103C317.39 -4.02186 316.683 -3.64527 316.041 -3.81714L315.394 -1.40233C316.036 -1.23046 316.45 -0.512834 316.278 0.128601C316.096 0.807768 315.389 1.18436 314.747 1.01248L313.54 0.688961L302.673 -2.22275C300.674 -2.75859 299.486 -4.81578 300.022 -6.81555L303.257 -18.8896C303.793 -20.8894 305.85 -22.0771 307.85 -21.5413ZM303.967 -7.05238C303.288 -7.23436 302.608 -6.80993 302.436 -6.1685C302.254 -5.48933 302.641 -4.81955 303.32 -4.63757L312.98 -2.04938L313.627 -4.46419L303.967 -7.05238Z" fill="white"/>
<path d="M162.264 -19.1389L173.13 -16.2272L174.338 -15.9037C174.979 -15.7318 175.394 -15.0142 175.222 -14.3727L171.986 -2.29865C171.804 -1.61949 171.097 -1.2429 170.456 -1.41477L169.808 1.00004C170.45 1.17192 170.864 1.88954 170.692 2.53098C170.51 3.21014 169.803 3.58673 169.161 3.41486L167.954 3.09134L157.087 0.179621C155.088 -0.356215 153.9 -2.4134 154.436 -4.41317L157.671 -16.4872C158.207 -18.487 160.264 -19.6747 162.264 -19.1389ZM158.381 -4.65001C157.702 -4.83199 157.022 -4.40756 156.851 -3.76612C156.669 -3.08696 157.055 -2.41718 157.734 -2.23519L167.394 0.352997L168.041 -2.06182L158.381 -4.65001Z" fill="white"/>
<g opacity="0.5">
<path d="M200.904 -8.78614L211.771 -5.87443L212.978 -5.5509C213.62 -5.37903 214.034 -4.66141 213.862 -4.01997L210.627 8.0541C210.445 8.73327 209.738 9.10985 209.096 8.93798L208.449 11.3528C209.091 11.5247 209.505 12.2423 209.333 12.8837C209.151 13.5629 208.443 13.9395 207.802 13.7676L206.595 13.4441L195.728 10.5324C193.728 9.99654 192.54 7.93935 193.076 5.93958L196.312 -6.13449C196.847 -8.13426 198.905 -9.32198 200.904 -8.78614ZM197.022 5.70274C196.343 5.52076 195.663 5.94519 195.491 6.58663C195.309 7.26579 195.696 7.93558 196.375 8.11756L206.034 10.7057L206.681 8.29094L197.022 5.70274Z" fill="white"/>
</g>
<path d="M240.425 3.09756C240.597 2.45612 241.277 2.03169 241.956 2.21367L243.163 2.5372C243.805 2.70907 244.219 3.42669 244.047 4.06813C244.689 4.24 245.103 4.95762 244.931 5.59906L242.666 14.0509C242.484 14.7301 241.777 15.1067 241.135 14.9348C240.953 15.614 240.246 15.9905 239.605 15.8187L238.397 15.4952C237.718 15.3132 237.331 14.6434 237.513 13.9642C236.834 13.7822 236.447 13.1125 236.629 12.4333L238.894 3.98144C239.066 3.34 239.746 2.91557 240.425 3.09756ZM231.39 17.4998L242.256 20.4115C244.897 21.1192 247.662 19.5549 248.38 16.8759C249.088 14.2347 247.486 11.4599 244.844 10.7522L245.491 8.3374C249.491 9.40907 251.866 13.5234 250.795 17.523C250.289 19.4096 249.127 20.8777 247.652 21.8572L248.293 22.0291C248.935 22.201 249.349 22.9186 249.177 23.56C248.995 24.2392 248.288 24.6158 247.646 24.4439L241.609 22.8263L230.742 19.9146C230.063 19.7326 229.677 19.0628 229.859 18.3836C230.03 17.7422 230.71 17.3178 231.39 17.4998ZM235.055 15.8938L242.3 17.8349C242.601 17.9158 242.822 18.2985 242.741 18.6004C242.65 18.9399 242.278 19.1232 241.976 19.0423L234.732 17.1012C234.392 17.0102 234.199 16.6753 234.29 16.3357C234.37 16.0338 234.715 15.8028 235.055 15.8938Z" fill="white"/>
<path d="M278.178 11.9194L289.044 14.8311L290.252 15.1546C290.893 15.3265 291.308 16.0441 291.136 16.6856L287.901 28.7596C287.719 29.4388 287.011 29.8154 286.37 29.6435L285.723 32.0583C286.364 32.2302 286.778 32.9478 286.606 33.5893C286.424 34.2684 285.717 34.645 285.075 34.4731L283.868 34.1496L273.001 31.2379C271.002 30.7021 269.814 28.6449 270.35 26.6451L273.585 14.571C274.121 12.5713 276.178 11.3836 278.178 11.9194ZM274.296 26.4083C273.616 26.2263 272.936 26.6507 272.765 27.2922C272.583 27.9713 272.969 28.6411 273.648 28.8231L283.308 31.4113L283.955 28.9965L274.296 26.4083Z" fill="white"/>
<path d="M325.441 25.3926C326.638 24.702 328.185 25.1165 328.875 26.3126L329.952 28.1784C330.643 29.3744 330.228 30.9214 329.032 31.612L326.736 32.9378L323.145 26.7184L325.441 25.3926ZM322.045 27.3537L325.635 33.5731L314.488 40.0089C314.01 40.2851 313.439 40.4555 312.87 40.4649L307.94 40.5999C307.618 40.5945 307.299 40.428 307.143 40.1032C306.94 39.8061 306.955 39.4463 307.15 39.1747L309.693 34.9631C309.986 34.4753 310.419 34.0657 310.898 33.7894L322.045 27.3537Z" fill="white"/>
<path d="M16.6817 -16.7365L27.5484 -13.8248L28.7558 -13.5013C29.3972 -13.3294 29.8115 -12.6118 29.6397 -11.9704L26.4044 0.103721C26.2224 0.782887 25.5149 1.15948 24.8735 0.987604L24.2264 3.40242C24.8679 3.57429 25.2822 4.29191 25.1103 4.93335C24.9283 5.61252 24.2208 5.98911 23.5794 5.81723L22.372 5.49371L11.5053 2.582C9.50555 2.04616 8.31783 -0.0110296 8.85366 -2.0108L12.0889 -14.0849C12.6247 -16.0846 14.6819 -17.2724 16.6817 -16.7365ZM12.7994 -2.24763C12.1202 -2.42962 11.4404 -2.00519 11.2685 -1.36375C11.0865 -0.684584 11.4732 -0.0148013 12.1524 0.167181L21.8116 2.75537L22.4587 0.340557L12.7994 -2.24763Z" fill="white"/>
<path d="M46.7799 -3.49528C47.1337 -4.81588 48.4834 -5.62701 49.8417 -5.26305L57.0862 -3.32191L58.8973 -2.83662L59.501 -2.67486L69.1603 -0.086668C70.4809 0.267186 71.2819 1.65459 70.928 2.97519L68.3398 12.6345C67.9759 13.9928 66.5986 14.7561 65.278 14.4022L55.6187 11.814L55.015 11.6523L53.2039 11.167L45.9595 9.22584C44.6011 8.86187 43.8277 7.52231 44.1917 6.16398L46.7799 -3.49528ZM58.8539 -0.260044L56.2658 9.39921L65.925 11.9874L68.5132 2.32815L58.8539 -0.260044ZM53.0108 0.11543C52.9684 -0.179021 52.7171 -0.448559 52.4529 -0.51933C52.1511 -0.600211 51.7987 -0.492434 51.6147 -0.258644L47.7441 4.52764C47.492 4.86452 47.5216 5.35773 47.8484 5.64749C48.223 5.90963 48.6785 5.86991 48.9682 5.54315L49.5201 4.84178L52.2745 5.57982L52.4018 6.46317C52.4894 6.89104 52.9017 7.16328 53.3195 7.11346C53.7473 7.0259 54.0196 6.61357 53.9697 6.19581L53.0108 0.11543ZM51.7452 2.12187L52.0375 3.89869L50.6037 3.5145L51.7452 2.12187ZM63.3196 2.39238C63.7347 2.5036 63.9833 2.93417 63.872 3.34922L63.8316 3.50014L65.4918 3.94499L66.0955 4.10675C66.5105 4.21796 66.7591 4.64854 66.6479 5.06358C66.5367 5.47863 66.1061 5.72722 65.6911 5.61601L65.6156 5.59579L65.4896 5.76423C64.9074 6.57879 64.1843 7.31518 63.3232 7.81237C63.3508 7.86021 63.3885 7.87032 63.4162 7.91816L64.0219 8.5253C64.3008 8.84268 64.2926 9.32579 64.0029 9.65255C63.6855 9.93147 63.2024 9.92335 62.8756 9.63359L62.3178 8.99883C62.1494 8.87281 62.0288 8.71918 61.8704 8.55543C61.4223 8.71845 60.9365 8.87136 60.3955 8.92859L60.2621 8.97372C59.8443 9.02355 59.432 8.7513 59.3444 8.32343C59.3047 7.86795 59.6046 7.50345 60.0324 7.41589L60.1557 7.40849C60.4502 7.36607 60.717 7.2758 60.9737 7.22327L60.6423 6.64917C60.4213 6.26644 60.5527 5.77593 60.9355 5.55496C61.2805 5.32388 61.771 5.45531 61.9919 5.83804L62.3685 6.54556L62.4063 6.55567C62.9905 6.18648 63.5194 5.72161 63.9932 5.16105L62.6726 4.8072L59.9559 4.07927C59.5409 3.96806 59.2923 3.53748 59.4035 3.12244C59.5147 2.70739 59.9453 2.4588 60.3603 2.57001L62.3223 3.09574L62.3628 2.94481C62.474 2.52977 62.9046 2.28117 63.3196 2.39238Z" fill="white"/>
<g opacity="0.5">
<path d="M93.9551 3.969L104.822 6.88071L106.029 7.20424C106.671 7.37611 107.085 8.09373 106.913 8.73517L103.678 20.8092C103.496 21.4884 102.788 21.865 102.147 21.6931L101.5 24.1079C102.141 24.2798 102.556 24.9974 102.384 25.6389C102.202 26.318 101.494 26.6946 100.853 26.5228L99.6454 26.1992L88.7788 23.2875C86.779 22.7517 85.5913 20.6945 86.1271 18.6947L89.3623 6.62065C89.8982 4.62088 91.9554 3.43316 93.9551 3.969ZM90.0728 18.4579C89.3937 18.2759 88.7138 18.7003 88.5419 19.3418C88.3599 20.0209 88.7466 20.6907 89.4258 20.8727L99.0851 23.4609L99.7321 21.0461L90.0728 18.4579Z" fill="white"/>
</g>
<path d="M125.523 27.2694L127.15 26.3303C127.628 26.0541 128.194 26.2057 128.433 26.674C130.339 29.9751 134.527 31.0973 137.828 29.1915C141.129 27.2856 142.251 23.0974 140.345 19.7963C140.097 19.3657 140.259 18.762 140.689 18.5134L142.353 17.5844C142.794 17.2981 143.36 17.4498 143.636 17.9282C143.885 18.3588 143.733 18.9247 143.303 19.1733L142.394 19.6981C144.183 23.7363 142.69 28.5531 138.767 30.8181C136.959 31.83 134.963 32.1849 133.064 31.8781L132.73 33.1233L136.353 34.0938C136.843 34.2253 137.147 34.7515 137.016 35.242C136.874 35.7703 136.358 36.0364 135.867 35.905L126.812 33.4785C126.284 33.337 126.007 32.8586 126.149 32.3303C126.28 31.8398 126.769 31.5259 127.297 31.6674L130.882 32.6279L131.215 31.3827C129.709 30.8173 128.323 29.7991 127.324 28.3988L126.425 28.8859C125.984 29.1722 125.418 29.0206 125.18 28.5523C124.893 28.1116 125.045 27.5456 125.523 27.2694ZM132.957 28.6547C130.995 28.129 129.495 26.635 128.969 24.6743C128.432 22.7512 128.989 20.676 130.425 19.2409C131.85 17.8436 133.907 17.2623 135.869 17.788C137.793 18.3037 139.283 19.8353 139.82 21.7584C140.346 23.7191 139.79 25.7944 138.364 27.1917C136.928 28.6267 134.881 29.1703 132.957 28.6547Z" fill="white"/>
<path d="M163.916 32.6624C164.778 33.217 165.719 33.6308 166.758 33.8283C168.373 34.1397 170.102 33.8751 171.602 33.1044C173.103 32.3337 174.279 31.1122 174.978 29.5605C175.491 28.4037 175.711 27.1282 175.637 25.8951C175.75 25.9255 175.911 25.9282 176.062 25.9686C181.382 27.3941 184.559 32.8959 183.133 38.2161C183.093 38.367 183.052 38.5179 182.984 38.621C182.263 38.1446 181.435 37.7611 180.567 37.5286C179.539 37.2933 178.459 37.2468 177.395 37.4468C176.33 37.6468 175.328 38.0658 174.437 38.6762C173.583 39.2967 172.839 40.1085 172.265 41.0464C171.738 41.9567 171.417 43.003 171.295 44.0622C171.259 44.4975 171.251 44.9806 171.263 45.3882C171.15 45.3579 170.999 45.3175 170.886 45.2871C165.528 43.8515 162.379 38.3976 163.815 33.0397C163.845 32.9265 163.885 32.7756 163.916 32.6624ZM174.125 25.6518C174.267 26.7817 174.125 27.9164 173.643 28.9601C173.073 30.1823 172.118 31.1801 170.932 31.8329C169.718 32.4378 168.332 32.6324 167.019 32.4019C166.103 32.197 165.2 31.7933 164.461 31.2313C166.247 27.5849 170.074 25.3752 174.125 25.6518ZM180.221 38.9725C181.013 39.1848 181.765 39.548 182.439 40.0521C180.653 43.6985 176.826 45.9082 172.775 45.6316C172.698 45.166 172.706 44.6829 172.752 44.2099C172.823 43.3394 173.121 42.5295 173.522 41.7877C173.971 41.0183 174.588 40.3748 175.288 39.8749C175.988 39.3751 176.799 39.0665 177.655 38.8914C178.51 38.7163 179.391 38.7501 180.221 38.9725Z" fill="white"/>
<path d="M209.814 36.5898L218.902 46.1423C219.339 46.6234 219.517 47.3181 219.355 47.9218C219.183 48.5632 218.682 49.0759 218.073 49.2362L205.427 52.9653C204.77 53.1532 204.043 52.9988 203.568 52.5076C203.083 52.0541 202.905 51.3594 203.087 50.6802L206.646 37.3988C206.817 36.7573 207.319 36.2446 207.966 36.0944C208.623 35.9065 209.34 36.0986 209.814 36.5898Z" fill="white"/>
<g opacity="0.5">
<path d="M248.506 45.3801L259.373 48.2918L260.58 48.6153C261.221 48.7872 261.636 49.5048 261.464 50.1462L258.229 62.2203C258.047 62.8995 257.339 63.2761 256.698 63.1042L256.051 65.519C256.692 65.6909 257.106 66.4085 256.935 67.0499C256.753 67.7291 256.045 68.1057 255.404 67.9338L254.196 67.6103L243.33 64.6986C241.33 64.1627 240.142 62.1055 240.678 60.1058L243.913 48.0317C244.449 46.0319 246.506 44.8442 248.506 45.3801ZM244.624 59.8689C243.944 59.687 243.265 60.1114 243.093 60.7528C242.911 61.432 243.297 62.1018 243.977 62.2838L253.636 64.8719L254.283 62.4571L244.624 59.8689Z" fill="white"/>
</g>
<path d="M291.045 58.0726L287.244 72.2596L279.8 68.6474L283.167 56.0828C283.369 55.3282 284.162 54.9341 284.876 55.2872L291.045 58.0726ZM279.152 70.0105L287.402 74.0815L296.546 74.6712C297.142 74.7097 297.699 74.2926 297.85 73.7267L301.338 60.7093L302.332 60.7734C303.127 60.8247 303.692 61.5828 303.49 62.3374L299.78 76.1848C299.618 76.7885 299.072 77.1678 298.475 77.1294L286.796 76.3454L276.251 71.1745C275.716 70.9097 275.48 70.2803 275.632 69.7144L279.342 55.8669C279.544 55.1123 280.375 54.7283 281.089 55.0814L282.02 55.5329L278.532 68.5503C278.37 69.154 278.616 69.7456 279.152 70.0105ZM288.451 72.5831L292.252 58.3961L298.95 59.0583C299.745 59.1096 300.272 59.8576 300.07 60.6122L296.704 73.1768L288.451 72.5831Z" fill="white"/>
<path d="M332.318 69.4551L334.754 68.8139C335.401 68.6637 336.105 69.0545 336.255 69.7014L338.199 76.9354C338.377 77.6301 337.996 78.2964 337.339 78.4843L334.903 79.1256C334.246 79.3135 333.542 78.9227 333.402 78.2381L331.458 71.0041C331.27 70.3471 331.661 69.643 332.318 69.4551ZM315.51 77.2454L317.46 76.7571L317.38 76.4525C317.192 75.7955 317.573 75.1292 318.192 74.9311L330.177 71.1057C330.194 71.1913 330.222 71.2391 330.239 71.3247L332.183 78.5587L332.173 78.5964L328.463 79.4626L329.351 86.4135C329.408 86.9546 329.04 87.4222 328.537 87.4895C327.996 87.5467 327.528 87.1788 327.471 86.6377L326.646 79.9058L322.528 85.3133C322.208 85.7533 321.619 85.8381 321.217 85.5281C320.777 85.208 320.692 84.6191 321.012 84.1792L323.764 80.549L319.958 81.4704C319.312 81.6206 318.655 81.2022 318.467 80.5452L318.44 80.4974L316.517 81.0335C316.041 81.1487 315.516 80.8461 315.363 80.3603L314.874 78.4096C314.732 77.8861 315.024 77.3983 315.51 77.2454Z" fill="white"/>
<path d="M-12.9902 16.7241L-2.12351 19.6358L-0.916108 19.9594C-0.274672 20.1312 0.139648 20.8489 -0.032224 21.4903L-3.26746 33.5644C-3.44944 34.2435 -4.15696 34.6201 -4.79839 34.4483L-5.44544 36.8631C-4.80401 37.0349 -4.38969 37.7526 -4.56156 38.394C-4.74354 39.0732 -5.45105 39.4498 -6.09249 39.2779L-7.2999 38.9544L-18.1666 36.0427C-20.1663 35.5068 -21.354 33.4496 -20.8182 31.4499L-17.583 19.3758C-17.0471 17.376 -14.9899 16.1883 -12.9902 16.7241ZM-16.8725 31.213C-17.5516 31.031 -18.2315 31.4555 -18.4034 32.0969C-18.5854 32.7761 -18.1987 33.4459 -17.5195 33.6278L-7.86026 36.216L-7.21321 33.8012L-16.8725 31.213Z" fill="white"/>
<path d="M25.6465 27.0769L36.5132 29.9886L37.7206 30.3121C38.362 30.484 38.7764 31.2016 38.6045 31.8431L35.3693 43.9171C35.1873 44.5963 34.4798 44.9729 33.8383 44.801L33.1913 47.2158C33.8327 47.3877 34.247 48.1053 34.0752 48.7468C33.8932 49.4259 33.1857 49.8025 32.5442 49.6307L31.3368 49.3071L20.4702 46.3954C18.4704 45.8596 17.2827 43.8024 17.8185 41.8026L21.0537 29.7286C21.5896 27.7288 23.6468 26.5411 25.6465 27.0769ZM21.7643 41.5658C21.0851 41.3838 20.4052 41.8082 20.2333 42.4497C20.0513 43.1288 20.438 43.7986 21.1172 43.9806L30.7765 46.5688L31.4235 44.154L21.7643 41.5658Z" fill="white"/>
<g opacity="0.5">
<path d="M69.6937 39.122L73.9152 43.8928L78.4053 45.0959C79.3863 45.3588 79.994 46.4113 79.7311 47.3923L76.4959 59.4664C76.2229 60.4852 75.1805 61.0551 74.1995 60.7922L53.6735 55.2923C52.6548 55.0193 52.0747 54.0147 52.3477 52.9959L55.583 40.9219C55.8458 39.9408 56.8606 39.3231 57.8794 39.596L62.3317 40.789L68.3731 38.7682C68.8589 38.6153 69.3871 38.7568 69.6937 39.122ZM62.4923 53.773L61.5217 57.3952L66.3513 58.6893L67.3219 55.0671C67.6757 53.7465 66.8747 52.3591 65.5541 52.0052C64.1958 51.6413 62.8461 52.4524 62.4923 53.773ZM58.7199 43.7035C58.3803 43.6125 58.0353 43.8436 57.9544 44.1455L57.3074 46.5603C57.2164 46.8999 57.4097 47.2348 57.7493 47.3258L58.9567 47.6493C59.2586 47.7302 59.6312 47.5469 59.7222 47.2073L60.3692 44.7925C60.4501 44.4907 60.2292 44.1079 59.9273 44.0271L58.7199 43.7035ZM73.6507 48.3513L73.0037 50.7661C72.9127 51.1057 73.106 51.4406 73.4456 51.5316L74.653 51.8551C74.9549 51.936 75.3275 51.7527 75.4185 51.4131L76.0655 48.9983C76.1464 48.6965 75.9254 48.3137 75.6236 48.2329L74.4162 47.9093C74.0766 47.8184 73.7316 48.0494 73.6507 48.3513ZM57.4258 48.5332C57.0862 48.4422 56.7412 48.6733 56.6603 48.9751L56.0133 51.3899C55.9223 51.7295 56.1156 52.0644 56.4552 52.1554L57.6626 52.4789C57.9645 52.5598 58.3371 52.3766 58.4281 52.037L59.0751 49.6222C59.156 49.3203 58.9351 48.9376 58.6332 48.8567L57.4258 48.5332ZM72.3566 53.1809L71.7096 55.5957C71.6186 55.9353 71.8119 56.2702 72.1515 56.3612L73.3589 56.6847C73.6608 56.7656 74.0334 56.5824 74.1244 56.2428L74.7714 53.828C74.8523 53.5261 74.6314 53.1434 74.3295 53.0625L73.1221 52.739C72.7825 52.648 72.4375 52.8791 72.3566 53.1809ZM64.0131 44.4748C63.6896 45.6822 64.0001 46.9382 64.8948 47.825C65.7619 48.6639 67.0071 48.9976 68.2152 48.7147C69.3957 48.3839 70.3304 47.4616 70.6539 46.2542C70.9673 45.0845 70.619 43.8184 69.7621 42.9418C68.8572 42.0927 67.6121 41.7591 66.4417 42.0521C65.2234 42.3727 64.3265 43.3051 64.0131 44.4748ZM67.8188 43.5534C68.1206 43.6343 68.3416 44.017 68.2607 44.3189L68.099 44.9226L68.7027 45.0843C69.0045 45.1652 69.2255 45.5479 69.1446 45.8498C69.0536 46.1894 68.681 46.3726 68.3792 46.2917L67.1717 45.9682C66.8322 45.8772 66.6388 45.5423 66.7298 45.2027L67.0533 43.9953C67.1342 43.6935 67.4792 43.4624 67.8188 43.5534Z" fill="white"/>
</g>
<path d="M109.458 51.1519L111.895 50.5107C112.542 50.3605 113.246 50.7514 113.396 51.3982L115.34 58.6322C115.518 59.3269 115.137 59.9933 114.48 60.1812L112.043 60.8224C111.386 61.0104 110.682 60.6195 110.542 59.9349L108.598 52.7009C108.41 52.044 108.801 51.3399 109.458 51.1519ZM92.6504 58.9422L94.6011 58.4539L94.5209 58.1493C94.333 57.4924 94.7138 56.826 95.333 56.628L107.317 52.8026C107.335 52.8881 107.363 52.936 107.38 53.0215L109.324 60.2555L109.314 60.2933L105.604 61.1594L106.491 68.1104C106.549 68.6514 106.181 69.119 105.677 69.1863C105.136 69.2436 104.669 68.8756 104.611 68.3346L103.787 61.6026L99.6686 67.0101C99.3485 67.4501 98.7596 67.5349 98.3574 67.225C97.9175 66.9049 97.8326 66.316 98.1527 65.876L100.905 62.2459L97.0991 63.1673C96.4523 63.3175 95.796 62.899 95.6081 62.242L95.5805 62.1942L93.6574 62.7304C93.1817 62.8456 92.6562 62.543 92.5033 62.0572L92.0149 60.1065C91.8721 59.5829 92.1646 59.0951 92.6504 58.9422Z" fill="white"/>
<path d="M145.875 61.6379C147.071 60.9474 148.618 61.3619 149.309 62.5579L153.093 69.1122C153.784 70.3083 153.369 71.8553 152.173 72.5458L145.916 76.1265L150.632 77.3902C151.274 77.5621 151.688 78.2797 151.516 78.9212C151.334 79.6003 150.627 79.9769 149.985 79.8051L141.873 77.6314L141.533 77.5404L137.534 76.4687C136.892 76.2968 136.349 75.9087 136.018 75.3346L133.808 71.5073C133.118 70.3112 133.532 68.7642 134.728 68.0737L145.875 61.6379ZM142.52 75.2166L145.725 73.3659L141.941 66.8116L135.971 70.2266L138.181 74.0539L142.181 75.1256L142.52 75.2166Z" fill="white"/>
<path d="M179.227 72.1102L176.962 80.562C176.719 81.4676 176.723 82.3583 176.956 83.1487L173.9 82.3298C173.221 82.1478 172.541 82.5722 172.369 83.2137C172.187 83.8928 172.574 84.5626 173.253 84.7446L180.498 86.6857L181.705 87.0093L182.912 87.3328C183.554 87.5047 183.968 88.2223 183.796 88.8637C183.614 89.5429 182.907 89.9195 182.265 89.7476L181.058 89.4241L172.606 87.1594C170.606 86.6236 169.419 84.5664 169.954 82.5666L172.219 74.1148C172.755 72.115 174.812 70.9273 176.812 71.4631L179.227 72.1102ZM182.029 85.8019L180.821 85.4783C179.727 85.1851 178.905 84.4796 178.428 83.543C178.034 82.7499 177.917 81.8288 178.169 80.8855L180.434 72.4337C180.97 70.4339 183.027 69.2462 185.027 69.782L193.479 72.0467L194.686 72.3702C195.328 72.5421 195.742 73.2597 195.57 73.9012L193.305 82.353C193.123 83.0322 192.416 83.4088 191.774 83.2369L191.127 85.6517C191.769 85.8236 192.183 86.5412 192.011 87.1826C191.829 87.8618 191.122 88.2384 190.48 88.0665L189.273 87.743L183.236 86.1254L182.029 85.8019ZM180.584 81.5326C180.402 82.2118 180.789 82.8815 181.468 83.0635L185.09 84.0341L188.713 85.0047L189.36 82.5898L185.737 81.6193L182.115 80.6487C181.436 80.4667 180.756 80.8912 180.584 81.5326Z" fill="white"/>
<path d="M225.728 81.335L227.733 88.3426C227.858 88.7806 227.737 89.2334 227.409 89.55C227.119 89.8768 226.644 89.992 226.229 89.8807L218.984 87.9396C218.531 87.8183 218.177 87.4807 218.089 87.0528C217.964 86.6148 218.086 86.1621 218.413 85.8454L223.653 80.7789C223.98 80.4623 224.418 80.337 224.871 80.4583C225.286 80.5695 225.603 80.897 225.728 81.335ZM221.717 92.2305C221.939 91.4005 222.763 90.8932 223.63 91.1257L229.064 92.5816C229.894 92.804 230.391 93.6651 230.169 94.4952L228.713 99.9285C228.48 100.796 227.629 101.256 226.799 101.033L221.366 99.5775C220.498 99.345 220.028 98.5317 220.261 97.6639L221.717 92.2305ZM213.658 98.1592C211.922 97.6942 210.58 96.364 210.117 94.6222C209.643 92.9181 210.138 91.0693 211.411 89.7926C212.673 88.5536 214.51 88.0349 216.246 88.5C217.944 88.9549 219.276 90.3228 219.749 92.0269C220.213 93.7687 219.717 95.6175 218.455 96.8565C217.183 98.1332 215.356 98.6142 213.658 98.1592Z" fill="white"/>
<path d="M264.715 91.1346L265.923 91.4581C266.564 91.63 266.978 92.3476 266.806 92.9891C266.625 93.6682 265.917 94.0448 265.276 93.8729L263.931 98.8912C263.81 99.344 263.801 99.8271 263.927 100.265L266.222 107.998C266.375 108.484 266.405 108.977 266.273 109.467C265.889 110.901 264.368 111.747 262.935 111.363L251.276 108.239C249.842 107.855 248.986 106.372 249.37 104.938C249.501 104.447 249.736 104.025 250.111 103.681L255.965 98.1319C256.293 97.8152 256.565 97.4029 256.686 96.9501L258.031 91.9318C257.352 91.7498 256.965 91.08 257.147 90.4009C257.319 89.7594 257.999 89.335 258.678 89.517L259.886 89.8405L264.715 91.1346ZM259.101 97.5971C258.859 98.5027 258.362 99.2997 257.707 99.9331L255.82 101.692L262.272 103.421L261.556 100.964C261.267 100.078 261.273 99.1497 261.516 98.2442L262.861 93.2259L260.446 92.5789L259.101 97.5971Z" fill="white"/>
<g opacity="0.5">
<path d="M296.107 99.5462L306.974 102.458L308.182 102.781C308.823 102.953 309.237 103.671 309.065 104.312L305.83 116.386C305.648 117.066 304.941 117.442 304.299 117.27L303.652 119.685C304.294 119.857 304.708 120.575 304.536 121.216C304.354 121.895 303.647 122.272 303.005 122.1L301.798 121.776L290.931 118.865C288.931 118.329 287.744 116.272 288.279 114.272L291.515 102.198C292.051 100.198 294.108 99.0104 296.107 99.5462ZM292.225 114.035C291.546 113.853 290.866 114.278 290.694 114.919C290.512 115.598 290.899 116.268 291.578 116.45L301.237 119.038L301.884 116.623L292.225 114.035Z" fill="white"/>
</g>
<path d="M-0.122935 62.8773L-3.92434 77.0643L-11.3681 73.4522L-8.00141 60.8876C-7.79921 60.133 -7.00612 59.7389 -6.29193 60.092L-0.122935 62.8773ZM-12.0164 74.8152L-3.76548 78.8863L5.37782 79.476C5.97413 79.5144 6.53071 79.0974 6.68237 78.5314L10.1704 65.514L11.1642 65.5781C11.9593 65.6294 12.5245 66.3875 12.3223 67.1421L8.6119 80.9896C8.45013 81.5933 7.90366 81.9726 7.30735 81.9341L-4.37209 81.1502L-14.9165 75.9793C-15.4521 75.7144 -15.6879 75.0851 -15.5363 74.5191L-11.8258 60.6716C-11.6236 59.917 -10.7928 59.533 -10.0786 59.8861L-9.14816 60.3377L-12.6361 73.355C-12.7979 73.9587 -12.552 74.5503 -12.0164 74.8152ZM-2.71693 77.3878L1.08447 63.2008L7.78191 63.8631C8.57698 63.9143 9.10449 64.6623 8.90229 65.4169L5.53562 77.9815L-2.71693 77.3878Z" fill="white"/>
<path d="M35.4071 87.2393C34.9037 87.3066 34.4004 87.3739 33.9449 87.4137C34.2049 88.8583 34.7608 89.0477 34.9117 89.0881C35.0249 89.1184 35.601 89.2324 36.5484 88.1112C36.1738 87.8491 35.7716 87.5391 35.4071 87.2393ZM44.0218 83.7646C44.8019 85.8339 44.762 87.643 43.5955 88.8267C42.4668 90.0206 40.7507 90.0865 38.8116 89.3243C37.4557 91.0639 35.8494 91.9275 34.2646 91.5029C32.6422 91.0682 31.6828 89.517 31.3785 87.3326C29.318 87.0231 27.8647 86.108 27.4842 84.5097C27.0659 82.9013 27.9736 81.3248 29.6838 79.9227C28.8937 77.8912 28.8958 76.072 30.0724 74.8505C31.191 73.6943 32.9071 73.6285 34.8462 74.3907C36.2021 72.6511 37.8186 71.7497 39.441 72.1844C41.0257 72.609 41.975 74.1979 42.2793 76.3824C44.3398 76.6918 45.7931 77.607 46.1837 79.1675C46.5919 80.8136 45.7219 82.4003 44.0218 83.7646ZM40.844 85.6631C40.627 86.1711 40.41 86.6791 40.1654 87.1393C41.3627 87.5005 41.7279 87.194 41.796 87.0909C41.9496 86.9703 42.2421 86.4825 41.8285 85.1585C41.5313 85.3619 41.1688 85.5074 40.844 85.6631ZM42.3593 78.9515C42.3411 79.4724 42.275 80.0208 42.2089 80.5693C42.4124 80.8665 42.6536 81.1737 42.8092 81.4985C43.8294 80.5587 43.82 79.99 43.7472 79.8087C43.7398 79.6854 43.5768 79.2373 42.3593 78.9515ZM39.7129 76.3013C39.4529 74.8567 38.9072 74.6296 38.794 74.5992C38.643 74.5588 38.0568 74.4826 37.1094 75.6037C37.484 75.8658 37.8862 76.1758 38.2885 76.4858C38.7541 76.4083 39.2574 76.341 39.7129 76.3013ZM32.8138 78.0519C33.0308 77.5439 33.2478 77.0358 33.4924 76.5757C32.3052 76.1767 31.9676 76.5311 31.8618 76.624C31.7459 76.7547 31.4258 77.1947 31.8293 78.5565C32.1642 78.3631 32.489 78.2075 32.8138 78.0519ZM30.8486 82.2164C29.8284 83.1563 29.8755 83.7351 29.9106 83.9062C29.918 84.0295 30.081 84.4776 31.2985 84.7634C31.3167 84.2426 31.3828 83.6941 31.4489 83.1456C31.2454 82.8485 31.042 82.5513 30.8486 82.2164ZM39.8713 82.6525C40.1544 81.596 39.8136 80.4532 39.0597 79.6446C38.2579 78.8636 37.0883 78.5502 36.0412 78.8358C34.9462 79.149 34.1174 79.9784 33.8343 81.0349C33.5411 82.1291 33.8442 83.2617 34.6359 84.0805C35.3999 84.8513 36.5695 85.1648 37.6544 84.8893C38.7116 84.5659 39.5781 83.7467 39.8713 82.6525ZM37.1763 80.6363C37.8178 80.8081 38.2321 81.5258 38.0602 82.1672C37.8782 82.8464 37.1707 83.2229 36.5293 83.0511C35.8501 82.8691 35.4634 82.1993 35.6454 81.5201C35.8173 80.8787 36.4972 80.4543 37.1763 80.6363Z" fill="white"/>
<path d="M80.1421 83.7374L82.1467 90.745C82.272 91.1829 82.1507 91.6357 81.8232 91.9524C81.5334 92.2791 81.0577 92.3943 80.6427 92.2831L73.3982 90.342C72.9455 90.2206 72.5911 89.883 72.5035 89.4552C72.3782 89.0172 72.4996 88.5644 72.8271 88.2478L78.0669 83.1813C78.3944 82.8647 78.8324 82.7394 79.2851 82.8607C79.7002 82.9719 80.0168 83.2994 80.1421 83.7374ZM76.1308 94.6329C76.3532 93.8028 77.1766 93.2955 78.0444 93.5281L83.4778 94.9839C84.3079 95.2063 84.8051 96.0675 84.5826 96.8976L83.1268 102.331C82.8942 103.199 82.0432 103.658 81.2131 103.436L75.7798 101.98C74.912 101.747 74.4424 100.934 74.6749 100.066L76.1308 94.6329ZM68.0717 100.562C66.3361 100.097 64.994 98.7663 64.5306 97.0245C64.057 95.3205 64.5524 93.4716 65.8247 92.1949C67.0868 90.9559 68.9243 90.4373 70.6599 90.9023C72.3578 91.3573 73.6898 92.7252 74.1633 94.4293C74.6267 96.171 74.1313 98.0199 72.8692 99.2589C71.597 100.536 69.7696 101.017 68.0717 100.562Z" fill="white"/>
<path d="M120.512 94.7162C121.708 94.0257 123.255 94.4402 123.945 95.6362L125.023 97.5021C125.713 98.6981 125.299 100.245 124.103 100.936L121.806 102.261L118.215 96.0421L120.512 94.7162ZM117.115 96.6773L120.706 102.897L109.559 109.333C109.08 109.609 108.509 109.779 107.94 109.789L103.011 109.924C102.689 109.918 102.369 109.752 102.214 109.427C102.01 109.13 102.026 108.77 102.22 108.498L104.764 104.287C105.056 103.799 105.49 103.389 105.968 103.113L117.115 96.6773Z" fill="white"/>
<path d="M150.525 101.949L161.392 104.86L162.6 105.184C163.241 105.356 163.655 106.073 163.483 106.715L160.248 118.789C160.066 119.468 159.359 119.845 158.717 119.673L158.07 122.088C158.712 122.259 159.126 122.977 158.954 123.618C158.772 124.298 158.065 124.674 157.423 124.502L156.216 124.179L145.349 121.267C143.349 120.731 142.162 118.674 142.697 116.674L145.933 104.6C146.468 102.6 148.526 101.413 150.525 101.949ZM146.643 116.437C145.964 116.255 145.284 116.68 145.112 117.321C144.93 118.001 145.317 118.67 145.996 118.852L155.655 121.44L156.302 119.026L146.643 116.437Z" fill="white"/>
<g opacity="0.5">
<path d="M197.789 115.422C198.985 114.731 200.532 115.146 201.223 116.342L202.3 118.208C202.99 119.404 202.576 120.951 201.38 121.641L199.084 122.967L195.493 116.748L197.789 115.422ZM194.392 117.383L197.983 123.602L186.836 130.038C186.358 130.314 185.786 130.485 185.218 130.494L180.288 130.629C179.966 130.624 179.647 130.457 179.491 130.132C179.288 129.835 179.303 129.475 179.497 129.204L182.041 124.992C182.334 124.504 182.767 124.095 183.245 123.819L194.392 117.383Z" fill="white"/>
</g>
<path d="M227.799 122.654L238.666 125.566L239.873 125.889C240.514 126.061 240.929 126.779 240.757 127.42L237.522 139.494C237.34 140.174 236.632 140.55 235.991 140.378L235.344 142.793C235.985 142.965 236.399 143.683 236.228 144.324C236.046 145.003 235.338 145.38 234.697 145.208L233.489 144.884L222.623 141.973C220.623 141.437 219.435 139.38 219.971 137.38L223.206 125.306C223.742 123.306 225.799 122.118 227.799 122.654ZM223.917 137.143C223.237 136.961 222.558 137.385 222.386 138.027C222.204 138.706 222.59 139.376 223.27 139.558L232.929 142.146L233.576 139.731L223.917 137.143Z" fill="white"/>
<path d="M259.367 145.955L260.994 145.015C261.472 144.739 262.038 144.891 262.277 145.359C264.182 148.66 268.371 149.782 271.672 147.877C274.973 145.971 276.095 141.782 274.189 138.481C273.941 138.051 274.102 137.447 274.533 137.199L276.197 136.27C276.638 135.983 277.204 136.135 277.48 136.613C277.729 137.044 277.577 137.61 277.146 137.858L276.237 138.383C278.027 142.421 276.534 147.238 272.611 149.503C270.803 150.515 268.807 150.87 266.908 150.563L266.574 151.808L270.196 152.779C270.687 152.91 270.991 153.437 270.859 153.927C270.718 154.455 270.202 154.721 269.711 154.59L260.656 152.164C260.127 152.022 259.851 151.544 259.993 151.015C260.124 150.525 260.613 150.211 261.141 150.353L264.725 151.313L265.059 150.068C263.552 149.502 262.167 148.484 261.167 147.084L260.268 147.571C259.828 147.857 259.262 147.706 259.023 147.237C258.737 146.797 258.889 146.231 259.367 145.955ZM266.801 147.34C264.839 146.814 263.338 145.32 262.812 143.359C262.276 141.436 262.832 139.361 264.268 137.926C265.694 136.529 267.751 135.947 269.713 136.473C271.637 136.989 273.127 138.52 273.663 140.443C274.189 142.404 273.633 144.479 272.208 145.877C270.772 147.312 268.725 147.855 266.801 147.34Z" fill="white"/>
<path d="M302.841 145.35C304.369 144.627 306.053 144.229 307.804 144.334C307.813 144.903 307.747 145.451 307.606 145.98C307.211 147.451 306.329 148.63 305.178 149.454L302.841 145.35ZM301.778 145.995L304.126 150.062C302.837 150.647 301.385 150.783 299.951 150.399C299.385 150.247 298.877 150.03 298.379 149.776C299.201 148.217 300.36 146.909 301.778 145.995ZM309.902 144.654C312.317 145.301 314.328 146.851 315.632 148.777L307.536 153.483L305.824 150.517C307.214 149.555 308.328 148.114 308.813 146.303C308.975 145.699 309.061 145.075 309.062 144.469C309.326 144.54 309.6 144.573 309.902 144.654ZM299.627 151.606C301.401 152.082 303.195 151.875 304.761 151.162L306.446 154.08L298.351 158.786C297.296 156.684 296.997 154.177 297.655 151.725C297.725 151.461 297.796 151.197 297.867 150.932C298.44 151.207 298.986 151.435 299.627 151.606ZM316.713 157.721C316.187 157.419 315.604 157.181 315 157.02C313.189 156.534 311.385 156.779 309.856 157.502L308.144 154.535L316.267 149.878C317.283 151.97 317.63 154.449 316.973 156.901C316.892 157.203 316.784 157.457 316.713 157.721ZM316.201 158.878C315.416 160.447 314.23 161.706 312.839 162.668L310.454 158.592C311.743 158.007 313.205 157.833 314.677 158.227C315.205 158.369 315.713 158.586 316.201 158.878ZM309.401 159.2L311.749 163.266C310.249 164.037 308.537 164.387 306.776 164.319C306.804 163.761 306.87 163.212 307.022 162.646C307.406 161.213 308.251 160.023 309.401 159.2ZM308.766 158.099C307.366 159.099 306.29 160.55 305.815 162.323C305.643 162.964 305.566 163.551 305.518 164.185C305.254 164.114 304.99 164.043 304.726 163.972C302.273 163.315 300.252 161.803 298.958 159.839L307.081 155.181L308.766 158.099Z" fill="white"/>
<path d="M4.94341 104.351L15.8101 107.263L17.0175 107.586C17.6589 107.758 18.0732 108.476 17.9014 109.117L14.6661 121.191C14.4841 121.87 13.7766 122.247 13.1352 122.075L12.4882 124.49C13.1296 124.662 13.5439 125.379 13.372 126.021C13.1901 126.7 12.4825 127.077 11.8411 126.905L10.6337 126.581L-0.232967 123.669C-2.23274 123.134 -3.42045 121.076 -2.88462 119.077L0.35062 107.003C0.886457 105.003 2.94365 103.815 4.94341 104.351ZM1.06113 118.84C0.381961 118.658 -0.297931 119.082 -0.469803 119.724C-0.651785 120.403 -0.265086 121.073 0.41408 121.255L10.0733 123.843L10.7204 121.428L1.06113 118.84Z" fill="white"/>
<path d="M47.8988 118.206C49.0949 117.516 50.6419 117.93 51.3324 119.126L55.1165 125.681C55.8071 126.877 55.3925 128.424 54.1965 129.114L47.9394 132.695L52.6558 133.959C53.2972 134.131 53.7116 134.848 53.5397 135.49C53.3577 136.169 52.6502 136.545 52.0088 136.374L43.8965 134.2L43.5569 134.109L39.5574 133.037C38.9159 132.865 38.3729 132.477 38.0414 131.903L35.8317 128.076C35.1412 126.88 35.5557 125.333 36.7517 124.642L47.8988 118.206ZM44.5435 131.785L47.7489 129.934L43.9648 123.38L37.9947 126.795L40.2044 130.622L44.204 131.694L44.5435 131.785Z" fill="white"/>
<path d="M82.2169 125.056L93.0835 127.968L94.2909 128.292C94.9324 128.464 95.3467 129.181 95.1748 129.823L91.9396 141.897C91.7576 142.576 91.0501 142.952 90.4086 142.781L89.7616 145.195C90.403 145.367 90.8173 146.085 90.6455 146.726C90.4635 147.406 89.756 147.782 89.1145 147.61L87.9071 147.287L77.0405 144.375C75.0407 143.839 73.853 141.782 74.3888 139.782L77.6241 127.708C78.1599 125.708 80.2171 124.521 82.2169 125.056ZM78.3346 139.545C77.6554 139.363 76.9755 139.788 76.8036 140.429C76.6217 141.108 77.0084 141.778 77.6875 141.96L87.3468 144.548L87.9938 142.134L78.3346 139.545Z" fill="white"/>
<path d="M115.632 150.672L115.642 150.634C115.697 150.729 116.152 151.296 118.087 151.168C118.532 151.166 118.998 151.088 119.464 151.011C119.057 150.416 118.66 149.784 118.263 149.152C117.914 148.493 117.565 147.833 117.254 147.183C116.954 147.548 116.654 147.912 116.43 148.297C115.351 149.909 115.614 150.586 115.632 150.672ZM119.209 145.321C119.545 146.18 119.967 147.021 120.464 147.882C120.961 148.743 121.478 149.529 122.054 150.249C122.874 149.903 123.715 149.481 124.576 148.984C125.475 148.497 126.223 147.969 126.944 147.394C126.597 146.573 126.213 145.742 125.678 144.871C125.191 143.972 124.664 143.224 124.126 142.514C123.268 142.85 122.437 143.234 121.566 143.769C120.705 144.266 119.919 144.784 119.209 145.321ZM122.264 140.559C121.9 140.259 121.535 139.959 121.188 139.745C119.539 138.656 118.862 138.92 118.814 138.947C118.718 139.002 118.151 139.457 118.28 141.392C118.282 141.838 118.359 142.303 118.437 142.769C119.031 142.362 119.663 141.965 120.295 141.568C120.955 141.219 121.614 140.87 122.264 140.559ZM124.905 139.609C128.494 138.589 131.586 138.973 132.663 140.838C133.741 142.704 132.527 145.574 129.849 148.172C130.859 151.799 130.475 154.891 128.609 155.969C126.743 157.046 123.874 155.832 121.275 153.154C117.648 154.164 114.556 153.78 113.479 151.914C112.402 150.049 113.615 147.179 116.303 144.543C115.284 140.953 115.667 137.861 117.533 136.784C119.399 135.707 122.268 136.921 124.905 139.609ZM126.679 141.742C127.086 142.336 127.482 142.968 127.879 143.6C128.228 144.26 128.577 144.92 128.888 145.569C129.188 145.205 129.488 144.84 129.712 144.456C130.791 142.844 130.528 142.167 130.51 142.081C130.445 142.023 129.99 141.457 128.055 141.585C127.61 141.587 127.144 141.665 126.679 141.742ZM127.705 149.984C127.111 150.391 126.479 150.788 125.847 151.184C125.187 151.533 124.528 151.882 123.878 152.194C124.243 152.494 124.607 152.793 124.992 153.018C126.603 154.097 127.281 153.833 127.366 153.816C127.424 153.75 127.991 153.296 127.862 151.361C127.86 150.915 127.783 150.45 127.705 149.984ZM124.302 146.686C124.12 147.365 123.413 147.742 122.771 147.57C122.092 147.388 121.706 146.718 121.888 146.039C122.059 145.398 122.739 144.973 123.419 145.155C124.06 145.327 124.474 146.045 124.302 146.686Z" fill="white"/>
<path d="M164.905 147.454L169.126 152.225L173.616 153.428C174.597 153.691 175.205 154.744 174.942 155.725L171.707 167.799C171.434 168.817 170.391 169.387 169.41 169.125L148.884 163.625C147.866 163.352 147.286 162.347 147.559 161.328L150.794 149.254C151.057 148.273 152.072 147.655 153.09 147.928L157.543 149.121L163.584 147.101C164.07 146.948 164.598 147.089 164.905 147.454ZM157.703 162.105L156.733 165.728L161.562 167.022L162.533 163.399C162.887 162.079 162.086 160.691 160.765 160.338C159.407 159.974 158.057 160.785 157.703 162.105ZM153.931 152.036C153.591 151.945 153.246 152.176 153.165 152.478L152.518 154.893C152.427 155.232 152.621 155.567 152.96 155.658L154.168 155.982C154.47 156.063 154.842 155.879 154.933 155.54L155.58 153.125C155.661 152.823 155.44 152.44 155.138 152.359L153.931 152.036ZM168.862 156.684L168.215 159.098C168.124 159.438 168.317 159.773 168.657 159.864L169.864 160.187C170.166 160.268 170.538 160.085 170.629 159.745L171.276 157.331C171.357 157.029 171.136 156.646 170.835 156.565L169.627 156.242C169.288 156.151 168.943 156.382 168.862 156.684ZM152.637 156.866C152.297 156.775 151.952 157.006 151.871 157.307L151.224 159.722C151.133 160.062 151.327 160.397 151.666 160.488L152.874 160.811C153.175 160.892 153.548 160.709 153.639 160.369L154.286 157.954C154.367 157.653 154.146 157.27 153.844 157.189L152.637 156.866ZM167.568 161.513L166.921 163.928C166.83 164.268 167.023 164.603 167.362 164.694L168.57 165.017C168.872 165.098 169.244 164.915 169.335 164.575L169.982 162.16C170.063 161.858 169.842 161.476 169.54 161.395L168.333 161.071C167.993 160.98 167.648 161.211 167.568 161.513ZM159.224 152.807C158.901 154.015 159.211 155.271 160.106 156.157C160.973 156.996 162.218 157.33 163.426 157.047C164.607 156.716 165.541 155.794 165.865 154.587C166.178 153.417 165.83 152.151 164.973 151.274C164.068 150.425 162.823 150.091 161.653 150.384C160.434 150.705 159.537 151.637 159.224 152.807ZM163.03 151.886C163.332 151.967 163.553 152.349 163.472 152.651L163.31 153.255L163.914 153.417C164.215 153.498 164.436 153.88 164.356 154.182C164.265 154.522 163.892 154.705 163.59 154.624L162.383 154.301C162.043 154.21 161.85 153.875 161.941 153.535L162.264 152.328C162.345 152.026 162.69 151.795 163.03 151.886Z" fill="white"/>
<path d="M199.015 157.646C199.187 157.004 199.867 156.58 200.546 156.762L201.753 157.085C202.395 157.257 202.809 157.975 202.637 158.616C203.278 158.788 203.693 159.506 203.521 160.147L201.256 168.599C201.074 169.278 200.367 169.655 199.725 169.483C199.543 170.162 198.836 170.539 198.194 170.367L196.987 170.043C196.308 169.861 195.921 169.192 196.103 168.512C195.424 168.33 195.037 167.661 195.219 166.981L197.484 158.53C197.656 157.888 198.336 157.464 199.015 157.646ZM189.979 172.048L200.846 174.96C203.487 175.667 206.252 174.103 206.97 171.424C207.677 168.783 206.075 166.008 203.434 165.3L204.081 162.886C208.081 163.957 210.456 168.072 209.385 172.071C208.879 173.958 207.717 175.426 206.242 176.405L206.883 176.577C207.524 176.749 207.939 177.467 207.767 178.108C207.585 178.787 206.877 179.164 206.236 178.992L200.199 177.374L189.332 174.463C188.653 174.281 188.266 173.611 188.448 172.932C188.62 172.29 189.3 171.866 189.979 172.048ZM193.645 170.442L200.889 172.383C201.191 172.464 201.412 172.847 201.331 173.149C201.24 173.488 200.868 173.671 200.566 173.59L193.321 171.649C192.982 171.558 192.788 171.223 192.879 170.884C192.96 170.582 193.305 170.351 193.645 170.442Z" fill="white"/>
<path d="M228.229 169.356C228.583 168.035 229.933 167.224 231.291 167.588L238.535 169.529L240.347 170.015L240.95 170.176L250.609 172.765C251.93 173.118 252.731 174.506 252.377 175.826L249.789 185.486C249.425 186.844 248.048 187.607 246.727 187.254L237.068 184.665L236.464 184.504L234.653 184.018L227.409 182.077C226.05 181.713 225.277 180.374 225.641 179.015L228.229 169.356ZM240.303 172.591L237.715 182.251L247.374 184.839L249.962 175.179L240.303 172.591ZM234.46 172.967C234.418 172.672 234.166 172.403 233.902 172.332C233.6 172.251 233.248 172.359 233.064 172.593L229.193 177.379C228.941 177.716 228.971 178.209 229.298 178.499C229.672 178.761 230.128 178.721 230.417 178.394L230.969 177.693L233.724 178.431L233.851 179.314C233.939 179.742 234.351 180.015 234.769 179.965C235.197 179.877 235.469 179.465 235.419 179.047L234.46 172.967ZM233.194 174.973L233.487 176.75L232.053 176.366L233.194 174.973ZM244.769 175.244C245.184 175.355 245.432 175.785 245.321 176.201L245.281 176.351L246.941 176.796L247.545 176.958C247.96 177.069 248.208 177.5 248.097 177.915C247.986 178.33 247.555 178.579 247.14 178.467L247.065 178.447L246.939 178.616C246.357 179.43 245.634 180.166 244.772 180.664C244.8 180.712 244.838 180.722 244.865 180.769L245.471 181.377C245.75 181.694 245.742 182.177 245.452 182.504C245.135 182.783 244.652 182.775 244.325 182.485L243.767 181.85C243.599 181.724 243.478 181.57 243.32 181.407C242.872 181.57 242.386 181.723 241.845 181.78L241.711 181.825C241.294 181.875 240.881 181.603 240.794 181.175C240.754 180.719 241.054 180.355 241.482 180.267L241.605 180.26C241.899 180.217 242.166 180.127 242.423 180.075L242.091 179.5C241.871 179.118 242.002 178.627 242.385 178.406C242.73 178.175 243.22 178.307 243.441 178.689L243.818 179.397L243.855 179.407C244.44 179.038 244.969 178.573 245.442 178.012L244.122 177.658L241.405 176.931C240.99 176.819 240.741 176.389 240.853 175.974C240.964 175.559 241.394 175.31 241.81 175.421L243.772 175.947L243.812 175.796C243.923 175.381 244.354 175.132 244.769 175.244Z" fill="white"/>
<path d="M275.404 176.82L286.271 179.732L287.478 180.056C288.12 180.227 288.534 180.945 288.362 181.586L285.127 193.661C284.945 194.34 284.238 194.716 283.596 194.544L282.949 196.959C283.591 197.131 284.005 197.849 283.833 198.49C283.651 199.169 282.943 199.546 282.302 199.374L281.095 199.051L270.228 196.139C268.228 195.603 267.04 193.546 267.576 191.546L270.812 179.472C271.347 177.472 273.405 176.284 275.404 176.82ZM271.522 191.309C270.843 191.127 270.163 191.552 269.991 192.193C269.809 192.872 270.196 193.542 270.875 193.724L280.534 196.312L281.181 193.897L271.522 191.309Z" fill="white"/>
<path d="M13.9083 148.164L24.7749 151.076L25.9823 151.4C26.6238 151.571 27.0381 152.289 26.8662 152.931L23.631 165.005C23.449 165.684 22.7415 166.06 22.1 165.888L21.453 168.303C22.0944 168.475 22.5088 169.193 22.3369 169.834C22.1549 170.513 21.4474 170.89 20.8059 170.718L19.5985 170.395L8.73188 167.483C6.73211 166.947 5.54439 164.89 6.08023 162.89L9.31546 150.816C9.8513 148.816 11.9085 147.629 13.9083 148.164ZM10.026 162.653C9.34681 162.471 8.66691 162.896 8.49504 163.537C8.31306 164.216 8.69976 164.886 9.37892 165.068L19.0382 167.656L19.6852 165.241L10.026 162.653Z" fill="white"/>
<g opacity="0.5">
<path d="M51.5744 162.139L49.3097 170.591C49.0671 171.497 49.0711 172.388 49.3041 173.178L46.2479 172.359C45.5687 172.177 44.8888 172.601 44.7169 173.243C44.535 173.922 44.9217 174.592 45.6008 174.774L52.8453 176.715L54.0527 177.038L55.2601 177.362C55.9015 177.534 56.3158 178.251 56.144 178.893C55.962 179.572 55.2545 179.949 54.613 179.777L53.4056 179.453L44.9538 177.189C42.954 176.653 41.7663 174.596 42.3021 172.596L44.5668 164.144C45.1026 162.144 47.1598 160.956 49.1596 161.492L51.5744 162.139ZM54.3762 175.831L53.1688 175.508C52.0746 175.214 51.2526 174.509 50.7757 173.572C50.3816 172.779 50.2644 171.858 50.5171 170.915L52.7818 162.463C53.3176 160.463 55.3748 159.275 57.3746 159.811L65.8265 162.076L67.0339 162.399C67.6753 162.571 68.0896 163.289 67.9177 163.93L65.6531 172.382C65.4711 173.061 64.7636 173.438 64.1221 173.266L63.4751 175.681C64.1165 175.853 64.5309 176.57 64.359 177.212C64.177 177.891 63.4695 178.268 62.8281 178.096L61.6206 177.772L55.5836 176.155L54.3762 175.831ZM52.932 171.562C52.75 172.241 53.1367 172.911 53.8158 173.093L57.4381 174.063L61.0603 175.034L61.7073 172.619L58.0851 171.648L54.4629 170.678C53.7837 170.496 53.1038 170.92 52.932 171.562Z" fill="white"/>
</g>
<path d="M91.1817 168.87L102.048 171.782L103.256 172.105C103.897 172.277 104.312 172.995 104.14 173.636L100.904 185.71C100.722 186.389 100.015 186.766 99.3735 186.594L98.7264 189.009C99.3679 189.181 99.7822 189.898 99.6103 190.54C99.4283 191.219 98.7208 191.596 98.0794 191.424L96.872 191.1L86.0053 188.188C84.0055 187.653 82.8178 185.595 83.3537 183.596L86.5889 171.522C87.1247 169.522 89.1819 168.334 91.1817 168.87ZM87.2994 183.359C86.6202 183.177 85.9404 183.601 85.7685 184.243C85.5865 184.922 85.9732 185.592 86.6524 185.774L96.3116 188.362L96.9587 185.947L87.2994 183.359Z" fill="white"/>
<path d="M129.822 179.223L140.689 182.134L141.896 182.458C142.538 182.63 142.952 183.347 142.78 183.989L139.545 196.063C139.363 196.742 138.656 197.119 138.014 196.947L137.367 199.362C138.008 199.533 138.423 200.251 138.251 200.893C138.069 201.572 137.361 201.948 136.72 201.776L135.513 201.453L124.646 198.541C122.646 198.005 121.458 195.948 121.994 193.948L125.23 181.874C125.765 179.875 127.823 178.687 129.822 179.223ZM125.94 193.712C125.261 193.53 124.581 193.954 124.409 194.595C124.227 195.275 124.614 195.944 125.293 196.126L134.952 198.715L135.599 196.3L125.94 193.712Z" fill="white"/>
</g>
</g>
<defs>
<clipPath id="clip0_1027_56594">
<rect width="320" height="180" fill="white"/>
</clipPath>
</defs>
</svg>
