<svg width="120" height="120" viewBox="0 0 120 120" fill="none" xmlns="http://www.w3.org/2000/svg">
<rect width="120" height="120" rx="4" fill="#99D2FF"/>
<path d="M24.5194 61.1309C24.5194 60.0134 24.8024 59.0017 25.3685 58.0956C25.9643 57.1896 26.7687 56.5101 27.7816 56.057C26.5899 55.6342 24.9961 55.3775 23 55.2869C23.1192 53.4446 23.6405 51.8289 24.5641 50.4396C25.4876 49.0201 26.7389 47.9329 28.3179 47.1779C29.8969 46.3926 31.6993 46 33.7251 46C36.6746 46 39.043 46.8305 40.8306 48.4916C42.6181 50.1527 43.5118 52.3725 43.5118 55.151V72.547H39.7133V55.5134C39.7133 53.5503 39.1473 51.995 38.0152 50.8473C36.8831 49.6997 35.3488 49.1258 33.4123 49.1258C31.8333 49.1258 30.4331 49.5034 29.2116 50.2584C28.02 50.9832 27.1858 51.9799 26.7091 53.2483C27.7816 53.3691 28.7946 53.6409 29.7479 54.0638C30.7012 54.4866 31.4312 54.9698 31.9376 55.5134V56.3289C30.8055 56.6611 29.9118 57.25 29.2563 58.0956C28.6307 58.9111 28.3179 59.8775 28.3179 60.995V72.547H24.5194V61.1309Z" fill="black" fill-opacity="0.38"/>
<path d="M70.0642 46.453V66.6124C70.0642 68.6661 69.4386 70.2517 68.1873 71.3691C66.9659 72.4564 65.1932 73 62.8695 73C60.5457 73 58.7731 72.4564 57.5516 71.3691C56.3301 70.2517 55.7194 68.6661 55.7194 66.6124V61.5839C55.7194 60.7685 55.8534 60.0436 56.1216 59.4094C56.4195 58.7752 56.8515 57.9748 57.4175 57.0084C57.9836 56.1326 58.4155 55.3473 58.7135 54.6527C59.0412 53.9279 59.205 53.1426 59.205 52.297C59.205 51.0889 58.8326 50.198 58.0878 49.6242C57.343 49.0503 56.3748 48.7634 55.1831 48.7634C53.7233 48.7634 52.5763 49.1409 51.7421 49.896C51.8911 49.8356 52.1294 49.8054 52.4571 49.8054C53.619 49.8054 54.5724 50.198 55.3172 50.9832C56.0918 51.7383 56.4791 52.75 56.4791 54.0185C56.4791 55.2567 56.0918 56.2836 55.3172 57.099C54.5426 57.9144 53.485 58.3221 52.1443 58.3221C50.7143 58.3221 49.5971 57.854 48.7927 56.9178C47.9883 55.9513 47.5861 54.6678 47.5861 53.0671C47.5861 51.0436 48.2565 49.3675 49.5971 48.0386C50.9675 46.6795 52.8593 46 55.2725 46C57.4473 46 59.2199 46.5285 60.5904 47.5856C61.9906 48.6124 62.6907 50.1074 62.6907 52.0705C62.6907 53.0973 62.5418 53.9883 62.2438 54.7433C61.9757 55.4681 61.5586 56.344 60.9926 57.3708C60.4861 58.2164 60.1137 58.9564 59.8754 59.5906C59.637 60.2248 59.5179 60.9195 59.5179 61.6745V66.7936C59.5179 67.7903 59.8009 68.5604 60.3669 69.104C60.9628 69.6174 61.8118 69.8742 62.9142 69.8742C64.0165 69.8742 64.8506 69.6174 65.4167 69.104C65.9827 68.5604 66.2658 67.7903 66.2658 66.7936V46.453H70.0642ZM54.2 54.0185C54.2 53.4144 54.0063 52.9312 53.619 52.5688C53.2615 52.2064 52.7848 52.0252 52.189 52.0252C51.5932 52.0252 51.1016 52.2064 50.7143 52.5688C50.3568 52.9312 50.178 53.4144 50.178 54.0185C50.178 54.6225 50.3568 55.1208 50.7143 55.5134C51.1016 55.8758 51.5932 56.057 52.189 56.057C52.7848 56.057 53.2615 55.8758 53.619 55.5134C54.0063 55.1208 54.2 54.6225 54.2 54.0185Z" fill="black" fill-opacity="0.38"/>
<path d="M86.3642 46C89.6414 46 92.2333 46.7852 94.14 48.3557C96.0467 49.896 97 51.995 97 54.6527V72.547H93.2015V55.0151C93.2015 53.203 92.5908 51.7685 91.3693 50.7114C90.1478 49.6544 88.4795 49.1258 86.3642 49.1258C84.0702 49.1258 82.2529 49.7148 80.9123 50.8926C79.6014 52.0705 78.946 53.656 78.946 55.6493C78.946 56.3138 79.0205 57.1443 79.1694 58.1409C79.3482 59.1074 79.4674 59.7265 79.527 59.9983C79.6163 60.3607 79.7206 60.9044 79.8398 61.6292C80.3164 59.3943 81.1059 57.5973 82.2082 56.2383C83.3403 54.849 84.7108 54.1544 86.3195 54.1544C87.6304 54.1544 88.6731 54.5168 89.4477 55.2416C90.2223 55.9362 90.6096 56.9178 90.6096 58.1862C90.6096 59.3943 90.2372 60.3909 89.4924 61.1762C88.7476 61.9312 87.7794 62.3087 86.5877 62.3087C85.9025 62.3087 85.2321 62.1577 84.5767 61.8557C83.9511 61.5235 83.4744 61.0554 83.1467 60.4513C82.5508 61.3876 82.0444 62.5503 81.6273 63.9396C81.2102 65.3289 81.0017 66.6275 81.0017 67.8356V72.547H77.2479V66.0688C77.2479 65.6158 77.1585 64.9815 76.9797 64.1661C76.801 63.3507 76.6073 62.5201 76.3988 61.6745C75.6242 58.8356 75.2369 56.7668 75.2369 55.4681C75.2369 52.5688 76.2349 50.2735 78.231 48.5822C80.2271 46.8607 82.9381 46 86.3642 46ZM86.4983 56.2836C85.9322 56.2836 85.4705 56.4648 85.113 56.8272C84.7852 57.1594 84.6214 57.6124 84.6214 58.1862C84.6214 58.7601 84.7852 59.2282 85.113 59.5906C85.4705 59.953 85.9322 60.1342 86.4983 60.1342C87.0643 60.1342 87.5112 59.953 87.8389 59.5906C88.1964 59.2282 88.3752 58.7601 88.3752 58.1862C88.3752 57.6124 88.1964 57.1594 87.8389 56.8272C87.5112 56.4648 87.0643 56.2836 86.4983 56.2836Z" fill="black" fill-opacity="0.38"/>
</svg>
