<svg width="128" height="72" viewBox="0 0 128 72" fill="none" xmlns="http://www.w3.org/2000/svg">
<rect width="128" height="72" rx="4" fill="#99D2FF"/>
<path d="M28.5194 37.1309C28.5194 36.0134 28.8024 35.0017 29.3685 34.0956C29.9643 33.1896 30.7687 32.5101 31.7816 32.057C30.5899 31.6342 28.9961 31.3775 27 31.2869C27.1192 29.4446 27.6405 27.8289 28.5641 26.4396C29.4876 25.0201 30.7389 23.9329 32.3179 23.1779C33.8969 22.3926 35.6993 22 37.7251 22C40.6746 22 43.043 22.8305 44.8306 24.4916C46.6181 26.1527 47.5118 28.3725 47.5118 31.151V48.547H43.7133V31.5134C43.7133 29.5503 43.1473 27.995 42.0152 26.8473C40.8831 25.6997 39.3488 25.1258 37.4123 25.1258C35.8333 25.1258 34.4331 25.5034 33.2116 26.2584C32.02 26.9832 31.1858 27.9799 30.7091 29.2483C31.7816 29.3691 32.7946 29.6409 33.7479 30.0638C34.7012 30.4866 35.4312 30.9698 35.9376 31.5134V32.3289C34.8055 32.6611 33.9118 33.25 33.2563 34.0956C32.6307 34.9111 32.3179 35.8775 32.3179 36.995V48.547H28.5194V37.1309Z" fill="black" fill-opacity="0.38"/>
<path d="M74.0642 22.453V42.6124C74.0642 44.6661 73.4386 46.2517 72.1873 47.3691C70.9659 48.4564 69.1932 49 66.8695 49C64.5457 49 62.7731 48.4564 61.5516 47.3691C60.3301 46.2517 59.7194 44.6661 59.7194 42.6124V37.5839C59.7194 36.7685 59.8534 36.0436 60.1216 35.4094C60.4195 34.7752 60.8515 33.9748 61.4175 33.0084C61.9836 32.1326 62.4155 31.3473 62.7135 30.6527C63.0412 29.9279 63.205 29.1426 63.205 28.297C63.205 27.0889 62.8326 26.198 62.0878 25.6242C61.343 25.0503 60.3748 24.7634 59.1831 24.7634C57.7233 24.7634 56.5763 25.1409 55.7421 25.896C55.8911 25.8356 56.1294 25.8054 56.4571 25.8054C57.619 25.8054 58.5724 26.198 59.3172 26.9832C60.0918 27.7383 60.4791 28.75 60.4791 30.0185C60.4791 31.2567 60.0918 32.2836 59.3172 33.099C58.5426 33.9144 57.485 34.3221 56.1443 34.3221C54.7143 34.3221 53.5971 33.854 52.7927 32.9178C51.9883 31.9513 51.5861 30.6678 51.5861 29.0671C51.5861 27.0436 52.2565 25.3675 53.5971 24.0386C54.9675 22.6795 56.8593 22 59.2725 22C61.4473 22 63.2199 22.5285 64.5904 23.5856C65.9906 24.6124 66.6907 26.1074 66.6907 28.0705C66.6907 29.0973 66.5418 29.9883 66.2438 30.7433C65.9757 31.4681 65.5586 32.344 64.9926 33.3708C64.4861 34.2164 64.1137 34.9564 63.8754 35.5906C63.637 36.2248 63.5179 36.9195 63.5179 37.6745V42.7936C63.5179 43.7903 63.8009 44.5604 64.3669 45.104C64.9628 45.6174 65.8118 45.8742 66.9142 45.8742C68.0165 45.8742 68.8506 45.6174 69.4167 45.104C69.9827 44.5604 70.2658 43.7903 70.2658 42.7936V22.453H74.0642ZM58.2 30.0185C58.2 29.4144 58.0063 28.9312 57.619 28.5688C57.2615 28.2064 56.7848 28.0252 56.189 28.0252C55.5932 28.0252 55.1016 28.2064 54.7143 28.5688C54.3568 28.9312 54.178 29.4144 54.178 30.0185C54.178 30.6225 54.3568 31.1208 54.7143 31.5134C55.1016 31.8758 55.5932 32.057 56.189 32.057C56.7848 32.057 57.2615 31.8758 57.619 31.5134C58.0063 31.1208 58.2 30.6225 58.2 30.0185Z" fill="black" fill-opacity="0.38"/>
<path d="M90.3642 22C93.6414 22 96.2333 22.7852 98.14 24.3557C100.047 25.896 101 27.995 101 30.6527V48.547H97.2015V31.0151C97.2015 29.203 96.5908 27.7685 95.3693 26.7114C94.1478 25.6544 92.4795 25.1258 90.3642 25.1258C88.0702 25.1258 86.2529 25.7148 84.9123 26.8926C83.6014 28.0705 82.946 29.656 82.946 31.6493C82.946 32.3138 83.0205 33.1443 83.1694 34.1409C83.3482 35.1074 83.4674 35.7265 83.527 35.9983C83.6163 36.3607 83.7206 36.9044 83.8398 37.6292C84.3164 35.3943 85.1059 33.5973 86.2082 32.2383C87.3403 30.849 88.7108 30.1544 90.3195 30.1544C91.6304 30.1544 92.6731 30.5168 93.4477 31.2416C94.2223 31.9362 94.6096 32.9178 94.6096 34.1862C94.6096 35.3943 94.2372 36.3909 93.4924 37.1762C92.7476 37.9312 91.7794 38.3087 90.5877 38.3087C89.9025 38.3087 89.2321 38.1577 88.5767 37.8557C87.9511 37.5235 87.4744 37.0554 87.1467 36.4513C86.5508 37.3876 86.0444 38.5503 85.6273 39.9396C85.2102 41.3289 85.0017 42.6275 85.0017 43.8356V48.547H81.2479V42.0688C81.2479 41.6158 81.1585 40.9815 80.9797 40.1661C80.801 39.3507 80.6073 38.5201 80.3988 37.6745C79.6242 34.8356 79.2369 32.7668 79.2369 31.4681C79.2369 28.5688 80.2349 26.2735 82.231 24.5822C84.2271 22.8607 86.9381 22 90.3642 22ZM90.4983 32.2836C89.9322 32.2836 89.4705 32.4648 89.113 32.8272C88.7852 33.1594 88.6214 33.6124 88.6214 34.1862C88.6214 34.7601 88.7852 35.2282 89.113 35.5906C89.4705 35.953 89.9322 36.1342 90.4983 36.1342C91.0643 36.1342 91.5112 35.953 91.8389 35.5906C92.1964 35.2282 92.3752 34.7601 92.3752 34.1862C92.3752 33.6124 92.1964 33.1594 91.8389 32.8272C91.5112 32.4648 91.0643 32.2836 90.4983 32.2836Z" fill="black" fill-opacity="0.38"/>
</svg>
